<?xml version="1.0" encoding="UTF-8" standalone="no"?>
<!DOCTYPE svg PUBLIC "-//W3C//DTD SVG 1.1//EN"
 "http://www.w3.org/Graphics/SVG/1.1/DTD/svg11.dtd">
<!-- Generated by graphviz version 2.40.1 (20161225.0304)
 -->
<!-- Title: dependencies Pages: 1 -->
<svg width="3895pt" height="360pt"
 viewBox="0.00 0.00 3895.00 360.00" xmlns="http://www.w3.org/2000/svg" xmlns:xlink="http://www.w3.org/1999/xlink">
<g id="graph0" class="graph" transform="scale(1 1) rotate(0) translate(4 356)">
<title>dependencies</title>
<polygon fill="#ffffff" stroke="transparent" points="-4,4 -4,-356 3891,-356 3891,4 -4,4"/>
<text text-anchor="start" x="1922.5091" y="-42.4" font-family="sans-serif" font-weight="bold" font-size="14.00" fill="#000000">Legend</text>
<polygon fill="#ffffb3" stroke="transparent" points="1709.5,-10 1709.5,-30 1729.5,-30 1729.5,-10 1709.5,-10"/>
<text text-anchor="start" x="1733.129" y="-15.4" font-family="sans-serif" font-size="14.00" fill="#000000"> &#160;Declarations</text>
<polygon fill="#8dd3c7" stroke="transparent" points="1822.5,-10 1822.5,-30 1842.5,-30 1842.5,-10 1822.5,-10"/>
<text text-anchor="start" x="1846.2251" y="-15.4" font-family="sans-serif" font-size="14.00" fill="#000000"> &#160;Module</text>
<polygon fill="#80b1d3" stroke="transparent" points="1908.5,-10 1908.5,-30 1928.5,-30 1928.5,-10 1908.5,-10"/>
<text text-anchor="start" x="1932.2812" y="-15.4" font-family="sans-serif" font-size="14.00" fill="#000000"> &#160;Bootstrap</text>
<polygon fill="#fdb462" stroke="transparent" points="2005.5,-10 2005.5,-30 2025.5,-30 2025.5,-10 2005.5,-10"/>
<text text-anchor="start" x="2029.1732" y="-15.4" font-family="sans-serif" font-size="14.00" fill="#000000"> &#160;Providers</text>
<polygon fill="#fb8072" stroke="transparent" points="2101.5,-10 2101.5,-30 2121.5,-30 2121.5,-10 2101.5,-10"/>
<text text-anchor="start" x="2125.2258" y="-15.4" font-family="sans-serif" font-size="14.00" fill="#000000"> &#160;Exports</text>
<g id="clust1" class="cluster">
<title>cluster_AppModule</title>
<polygon fill="none" stroke="#000000" stroke-dasharray="1,5" points="8,-146 8,-344 3879,-344 3879,-146 8,-146"/>
</g>
<g id="clust2" class="cluster">
<title>cluster_AppModule_declarations</title>
<polygon fill="none" stroke="#000000" points="2448,-154 2448,-206 3871,-206 3871,-154 2448,-154"/>
</g>
<g id="clust13" class="cluster">
<title>cluster_AppModule_imports</title>
<polygon fill="none" stroke="#000000" points="1288,-154 1288,-206 2440,-206 2440,-154 1288,-154"/>
</g>
<g id="clust15" class="cluster">
<title>cluster_AppModule_bootstrap</title>
<polygon fill="none" stroke="#000000" points="2014,-284 2014,-336 2138,-336 2138,-284 2014,-284"/>
</g>
<g id="clust16" class="cluster">
<title>cluster_AppModule_providers</title>
<polygon fill="none" stroke="#000000" points="16,-154 16,-206 1280,-206 1280,-154 16,-154"/>
</g>
<g id="clust17" class="cluster">
<title>cluster_AuthModule</title>
<polygon fill="none" stroke="#000000" stroke-dasharray="1,5" points="1270,-70 1270,-138 2018,-138 2018,-70 1270,-70"/>
</g>
<g id="clust22" class="cluster">
<title>cluster_AuthModule_providers</title>
<polygon fill="none" stroke="#000000" points="1278,-78 1278,-130 2010,-130 2010,-78 1278,-78"/>
</g>
<!-- AppComponent -->
<g id="node1" class="node">
<title>AppComponent</title>
<polygon fill="#ffffb3" stroke="#000000" points="3862.9399,-198 3757.0601,-198 3757.0601,-162 3862.9399,-162 3862.9399,-198"/>
<text text-anchor="middle" x="3810" y="-175.8" font-family="Times,serif" font-size="14.00" fill="#000000">AppComponent</text>
</g>
<!-- AppModule -->
<g id="node11" class="node">
<title>AppModule</title>
<polygon fill="#8dd3c7" stroke="#000000" points="2117.6571,-263 2114.6571,-267 2093.6571,-267 2090.6571,-263 2034.3429,-263 2034.3429,-227 2117.6571,-227 2117.6571,-263"/>
<text text-anchor="middle" x="2076" y="-240.8" font-family="Times,serif" font-size="14.00" fill="#000000">AppModule</text>
</g>
<!-- AppComponent&#45;&gt;AppModule -->
<g id="edge1" class="edge">
<title>AppComponent&#45;&gt;AppModule</title>
<path fill="none" stroke="#000000" d="M3810,-198.3802C3810,-222.2785 3810,-261 3810,-261 3810,-261 2128.004,-261 2128.004,-261"/>
<polygon fill="#000000" stroke="#000000" points="2128.004,-257.5001 2118.004,-261 2128.0039,-264.5001 2128.004,-257.5001"/>
</g>
<!-- NavbarComponent -->
<g id="node2" class="node">
<title>NavbarComponent</title>
<polygon fill="#ffffb3" stroke="#000000" points="3739.0297,-198 3616.9703,-198 3616.9703,-162 3739.0297,-162 3739.0297,-198"/>
<text text-anchor="middle" x="3678" y="-175.8" font-family="Times,serif" font-size="14.00" fill="#000000">NavbarComponent</text>
</g>
<!-- NavbarComponent&#45;&gt;AppModule -->
<g id="edge2" class="edge">
<title>NavbarComponent&#45;&gt;AppModule</title>
<path fill="none" stroke="#000000" d="M3678,-198.0908C3678,-221.1328 3678,-258 3678,-258 3678,-258 2128.0262,-258 2128.0262,-258"/>
<polygon fill="#000000" stroke="#000000" points="2128.0262,-254.5001 2118.0262,-258 2128.0261,-261.5001 2128.0262,-254.5001"/>
</g>
<!-- SignupComponent -->
<g id="node3" class="node">
<title>SignupComponent</title>
<polygon fill="#ffffb3" stroke="#000000" points="3598.5056,-198 3477.4944,-198 3477.4944,-162 3598.5056,-162 3598.5056,-198"/>
<text text-anchor="middle" x="3538" y="-175.8" font-family="Times,serif" font-size="14.00" fill="#000000">SignupComponent</text>
</g>
<!-- SignupComponent&#45;&gt;AppModule -->
<g id="edge3" class="edge">
<title>SignupComponent&#45;&gt;AppModule</title>
<path fill="none" stroke="#000000" d="M3538,-198.1554C3538,-220.3519 3538,-255 3538,-255 3538,-255 2127.7881,-255 2127.7881,-255"/>
<polygon fill="#000000" stroke="#000000" points="2127.7882,-251.5001 2117.7881,-255 2127.7881,-258.5001 2127.7882,-251.5001"/>
</g>
<!-- HomeComponent -->
<g id="node4" class="node">
<title>HomeComponent</title>
<polygon fill="#ffffb3" stroke="#000000" points="3459.5451,-198 3344.4549,-198 3344.4549,-162 3459.5451,-162 3459.5451,-198"/>
<text text-anchor="middle" x="3402" y="-175.8" font-family="Times,serif" font-size="14.00" fill="#000000">HomeComponent</text>
</g>
<!-- HomeComponent&#45;&gt;AppModule -->
<g id="edge4" class="edge">
<title>HomeComponent&#45;&gt;AppModule</title>
<path fill="none" stroke="#000000" d="M3402,-198.1686C3402,-219.498 3402,-252 3402,-252 3402,-252 2127.8746,-252 2127.8746,-252"/>
<polygon fill="#000000" stroke="#000000" points="2127.8746,-248.5001 2117.8746,-252 2127.8746,-255.5001 2127.8746,-248.5001"/>
</g>
<!-- UserListComponent -->
<g id="node5" class="node">
<title>UserListComponent</title>
<polygon fill="#ffffb3" stroke="#000000" points="3325.538,-198 3196.462,-198 3196.462,-162 3325.538,-162 3325.538,-198"/>
<text text-anchor="middle" x="3261" y="-175.8" font-family="Times,serif" font-size="14.00" fill="#000000">UserListComponent</text>
</g>
<!-- UserListComponent&#45;&gt;AppModule -->
<g id="edge5" class="edge">
<title>UserListComponent&#45;&gt;AppModule</title>
<path fill="none" stroke="#000000" d="M3261,-198.0267C3261,-218.7672 3261,-250 3261,-250 3261,-250 2127.8267,-250 2127.8267,-250"/>
<polygon fill="#000000" stroke="#000000" points="2127.8267,-246.5001 2117.8267,-250 2127.8267,-253.5001 2127.8267,-246.5001"/>
</g>
<!-- ListComponent -->
<g id="node6" class="node">
<title>ListComponent</title>
<polygon fill="#ffffb3" stroke="#000000" points="3178.6109,-198 3075.3891,-198 3075.3891,-162 3178.6109,-162 3178.6109,-198"/>
<text text-anchor="middle" x="3127" y="-175.8" font-family="Times,serif" font-size="14.00" fill="#000000">ListComponent</text>
</g>
<!-- ListComponent&#45;&gt;AppModule -->
<g id="edge6" class="edge">
<title>ListComponent&#45;&gt;AppModule</title>
<path fill="none" stroke="#000000" d="M3127,-198.308C3127,-218.1455 3127,-247 3127,-247 3127,-247 2127.849,-247 2127.849,-247"/>
<polygon fill="#000000" stroke="#000000" points="2127.849,-243.5001 2117.849,-247 2127.849,-250.5001 2127.849,-243.5001"/>
</g>
<!-- MessagesComponent -->
<g id="node7" class="node">
<title>MessagesComponent</title>
<polygon fill="#ffffb3" stroke="#000000" points="3057.7548,-198 2922.2452,-198 2922.2452,-162 3057.7548,-162 3057.7548,-198"/>
<text text-anchor="middle" x="2990" y="-175.8" font-family="Times,serif" font-size="14.00" fill="#000000">MessagesComponent</text>
</g>
<!-- MessagesComponent&#45;&gt;AppModule -->
<g id="edge7" class="edge">
<title>MessagesComponent&#45;&gt;AppModule</title>
<path fill="none" stroke="#000000" d="M2990,-198.1686C2990,-217.0898 2990,-244 2990,-244 2990,-244 2127.9489,-244 2127.9489,-244"/>
<polygon fill="#000000" stroke="#000000" points="2127.9489,-240.5001 2117.9489,-244 2127.9489,-247.5001 2127.9489,-240.5001"/>
</g>
<!-- UserViewComponent -->
<g id="node8" class="node">
<title>UserViewComponent</title>
<polygon fill="#ffffb3" stroke="#000000" points="2904.0772,-198 2765.9228,-198 2765.9228,-162 2904.0772,-162 2904.0772,-198"/>
<text text-anchor="middle" x="2835" y="-175.8" font-family="Times,serif" font-size="14.00" fill="#000000">UserViewComponent</text>
</g>
<!-- UserViewComponent&#45;&gt;AppModule -->
<g id="edge8" class="edge">
<title>UserViewComponent&#45;&gt;AppModule</title>
<path fill="none" stroke="#000000" d="M2835,-198.302C2835,-216.2699 2835,-241 2835,-241 2835,-241 2127.8883,-241 2127.8883,-241"/>
<polygon fill="#000000" stroke="#000000" points="2127.8883,-237.5001 2117.8883,-241 2127.8882,-244.5001 2127.8883,-237.5001"/>
</g>
<!-- UserDetailComponent -->
<g id="node9" class="node">
<title>UserDetailComponent</title>
<polygon fill="#ffffb3" stroke="#000000" points="2747.9664,-198 2606.0336,-198 2606.0336,-162 2747.9664,-162 2747.9664,-198"/>
<text text-anchor="middle" x="2677" y="-175.8" font-family="Times,serif" font-size="14.00" fill="#000000">UserDetailComponent</text>
</g>
<!-- UserDetailComponent&#45;&gt;AppModule -->
<g id="edge9" class="edge">
<title>UserDetailComponent&#45;&gt;AppModule</title>
<path fill="none" stroke="#000000" d="M2677,-198.0225C2677,-215.3734 2677,-239 2677,-239 2677,-239 2127.784,-239 2127.784,-239"/>
<polygon fill="#000000" stroke="#000000" points="2127.784,-235.5001 2117.784,-239 2127.784,-242.5001 2127.784,-235.5001"/>
</g>
<!-- UserEditComponent -->
<g id="node10" class="node">
<title>UserEditComponent</title>
<polygon fill="#ffffb3" stroke="#000000" points="2587.5926,-198 2456.4074,-198 2456.4074,-162 2587.5926,-162 2587.5926,-198"/>
<text text-anchor="middle" x="2522" y="-175.8" font-family="Times,serif" font-size="14.00" fill="#000000">UserEditComponent</text>
</g>
<!-- UserEditComponent&#45;&gt;AppModule -->
<g id="edge10" class="edge">
<title>UserEditComponent&#45;&gt;AppModule</title>
<path fill="none" stroke="#000000" d="M2522,-198.027C2522,-214.3976 2522,-236 2522,-236 2522,-236 2127.9586,-236 2127.9586,-236"/>
<polygon fill="#000000" stroke="#000000" points="2127.9586,-232.5001 2117.9586,-236 2127.9586,-239.5001 2127.9586,-232.5001"/>
</g>
<!-- AppComponent  -->
<g id="node20" class="node">
<title>AppComponent </title>
<polygon fill="#80b1d3" stroke="#000000" points="2130.439,-328 2021.561,-328 2021.561,-292 2130.439,-292 2130.439,-328"/>
<text text-anchor="middle" x="2076" y="-305.8" font-family="Times,serif" font-size="14.00" fill="#000000">AppComponent </text>
</g>
<!-- AppModule&#45;&gt;AppComponent  -->
<g id="edge19" class="edge">
<title>AppModule&#45;&gt;AppComponent </title>
<path fill="none" stroke="#000000" stroke-dasharray="1,5" d="M2076,-263.1061C2076,-263.1061 2076,-281.991 2076,-281.991"/>
<polygon fill="#000000" stroke="#000000" points="2072.5001,-281.9909 2076,-291.991 2079.5001,-281.991 2072.5001,-281.9909"/>
</g>
<!-- BrowserModule -->
<g id="node12" class="node">
<title>BrowserModule</title>
<polygon fill="#8dd3c7" stroke="#000000" points="2432.4734,-198 2429.4734,-202 2408.4734,-202 2405.4734,-198 2325.5266,-198 2325.5266,-162 2432.4734,-162 2432.4734,-198"/>
<text text-anchor="middle" x="2379" y="-175.8" font-family="Times,serif" font-size="14.00" fill="#000000">BrowserModule</text>
</g>
<!-- BrowserModule&#45;&gt;AppModule -->
<g id="edge11" class="edge">
<title>BrowserModule&#45;&gt;AppModule</title>
<path fill="none" stroke="#000000" d="M2379,-198.2396C2379,-213.5706 2379,-233 2379,-233 2379,-233 2127.8127,-233 2127.8127,-233"/>
<polygon fill="#000000" stroke="#000000" points="2127.8128,-229.5001 2117.8127,-233 2127.8127,-236.5001 2127.8128,-229.5001"/>
</g>
<!-- HttpModule -->
<g id="node13" class="node">
<title>HttpModule</title>
<polygon fill="#8dd3c7" stroke="#000000" points="2307.4387,-198 2304.4387,-202 2283.4387,-202 2280.4387,-198 2222.5613,-198 2222.5613,-162 2307.4387,-162 2307.4387,-198"/>
<text text-anchor="middle" x="2265" y="-175.8" font-family="Times,serif" font-size="14.00" fill="#000000">HttpModule</text>
</g>
<!-- HttpModule&#45;&gt;AppModule -->
<g id="edge12" class="edge">
<title>HttpModule&#45;&gt;AppModule</title>
<path fill="none" stroke="#000000" d="M2265,-198.0511C2265,-212.373 2265,-230 2265,-230 2265,-230 2127.9452,-230 2127.9452,-230"/>
<polygon fill="#000000" stroke="#000000" points="2127.9453,-226.5001 2117.9452,-230 2127.9452,-233.5001 2127.9453,-226.5001"/>
</g>
<!-- FormsModule -->
<g id="node14" class="node">
<title>FormsModule</title>
<polygon fill="#8dd3c7" stroke="#000000" points="2204.8288,-198 2201.8288,-202 2180.8288,-202 2177.8288,-198 2109.1712,-198 2109.1712,-162 2204.8288,-162 2204.8288,-198"/>
<text text-anchor="middle" x="2157" y="-175.8" font-family="Times,serif" font-size="14.00" fill="#000000">FormsModule</text>
</g>
<!-- FormsModule&#45;&gt;AppModule -->
<g id="edge13" class="edge">
<title>FormsModule&#45;&gt;AppModule</title>
<path fill="none" stroke="#000000" d="M2113.5821,-198.1061C2113.5821,-198.1061 2113.5821,-216.991 2113.5821,-216.991"/>
<polygon fill="#000000" stroke="#000000" points="2110.0821,-216.9909 2113.5821,-226.991 2117.0821,-216.991 2110.0821,-216.9909"/>
</g>
<!-- BsDropdownModule.forRoot() -->
<g id="node15" class="node">
<title>BsDropdownModule.forRoot()</title>
<polygon fill="#8dd3c7" stroke="#000000" points="2091.0749,-198 2088.0749,-202 2067.0749,-202 2064.0749,-198 1900.9251,-198 1900.9251,-162 2091.0749,-162 2091.0749,-198"/>
<text text-anchor="middle" x="1996" y="-175.8" font-family="Times,serif" font-size="14.00" fill="#000000">BsDropdownModule.forRoot()</text>
</g>
<!-- BsDropdownModule.forRoot()&#45;&gt;AppModule -->
<g id="edge14" class="edge">
<title>BsDropdownModule.forRoot()&#45;&gt;AppModule</title>
<path fill="none" stroke="#000000" d="M2062.7295,-198.1061C2062.7295,-198.1061 2062.7295,-216.991 2062.7295,-216.991"/>
<polygon fill="#000000" stroke="#000000" points="2059.2296,-216.9909 2062.7295,-226.991 2066.2296,-216.991 2059.2296,-216.9909"/>
</g>
<!-- RouterModule.forRoot(args) -->
<g id="node16" class="node">
<title>RouterModule.forRoot(args)</title>
<polygon fill="#8dd3c7" stroke="#000000" points="1882.8419,-198 1879.8419,-202 1858.8419,-202 1855.8419,-198 1705.1581,-198 1705.1581,-162 1882.8419,-162 1882.8419,-198"/>
<text text-anchor="middle" x="1794" y="-175.8" font-family="Times,serif" font-size="14.00" fill="#000000">RouterModule.forRoot(args)</text>
</g>
<!-- RouterModule.forRoot(args)&#45;&gt;AppModule -->
<g id="edge15" class="edge">
<title>RouterModule.forRoot(args)&#45;&gt;AppModule</title>
<path fill="none" stroke="#000000" d="M1794,-198.0511C1794,-212.373 1794,-230 1794,-230 1794,-230 2024.0863,-230 2024.0863,-230"/>
<polygon fill="#000000" stroke="#000000" points="2024.0863,-233.5001 2034.0863,-230 2024.0862,-226.5001 2024.0863,-233.5001"/>
</g>
<!-- AuthModule -->
<g id="node17" class="node">
<title>AuthModule</title>
<polygon fill="#8dd3c7" stroke="#000000" points="1687.5482,-198 1684.5482,-202 1663.5482,-202 1660.5482,-198 1600.4518,-198 1600.4518,-162 1687.5482,-162 1687.5482,-198"/>
<text text-anchor="middle" x="1644" y="-175.8" font-family="Times,serif" font-size="14.00" fill="#000000">AuthModule</text>
</g>
<!-- AuthModule&#45;&gt;AppModule -->
<g id="edge16" class="edge">
<title>AuthModule&#45;&gt;AppModule</title>
<path fill="none" stroke="#000000" d="M1644,-198.2396C1644,-213.5706 1644,-233 1644,-233 1644,-233 2024.1855,-233 2024.1855,-233"/>
<polygon fill="#000000" stroke="#000000" points="2024.1855,-236.5001 2034.1855,-233 2024.1855,-229.5001 2024.1855,-236.5001"/>
</g>
<!-- TabsModule.forRoot() -->
<g id="node18" class="node">
<title>TabsModule.forRoot()</title>
<polygon fill="#8dd3c7" stroke="#000000" points="1582.6313,-198 1579.6313,-202 1558.6313,-202 1555.6313,-198 1439.3687,-198 1439.3687,-162 1582.6313,-162 1582.6313,-198"/>
<text text-anchor="middle" x="1511" y="-175.8" font-family="Times,serif" font-size="14.00" fill="#000000">TabsModule.forRoot()</text>
</g>
<!-- TabsModule.forRoot()&#45;&gt;AppModule -->
<g id="edge17" class="edge">
<title>TabsModule.forRoot()&#45;&gt;AppModule</title>
<path fill="none" stroke="#000000" d="M1511,-198.027C1511,-214.3976 1511,-236 1511,-236 1511,-236 2023.9948,-236 2023.9948,-236"/>
<polygon fill="#000000" stroke="#000000" points="2023.9948,-239.5001 2033.9948,-236 2023.9947,-232.5001 2023.9948,-239.5001"/>
</g>
<!-- NgxGalleryModule -->
<g id="node19" class="node">
<title>NgxGalleryModule</title>
<polygon fill="#8dd3c7" stroke="#000000" points="1421.6345,-198 1418.6345,-202 1397.6345,-202 1394.6345,-198 1296.3655,-198 1296.3655,-162 1421.6345,-162 1421.6345,-198"/>
<text text-anchor="middle" x="1359" y="-175.8" font-family="Times,serif" font-size="14.00" fill="#000000">NgxGalleryModule</text>
</g>
<!-- NgxGalleryModule&#45;&gt;AppModule -->
<g id="edge18" class="edge">
<title>NgxGalleryModule&#45;&gt;AppModule</title>
<path fill="none" stroke="#000000" d="M1359,-198.0225C1359,-215.3734 1359,-239 1359,-239 1359,-239 2024.0889,-239 2024.0889,-239"/>
<polygon fill="#000000" stroke="#000000" points="2024.089,-242.5001 2034.0889,-239 2024.0889,-235.5001 2024.089,-242.5001"/>
</g>
<!-- AuthService -->
<g id="node21" class="node">
<title>AuthService</title>
<ellipse fill="#fdb462" stroke="#000000" cx="1213" cy="-180" rx="59.1083" ry="18"/>
<text text-anchor="middle" x="1213" y="-175.8" font-family="Times,serif" font-size="14.00" fill="#000000">AuthService</text>
</g>
<!-- AuthService&#45;&gt;AppModule -->
<g id="edge20" class="edge">
<title>AuthService&#45;&gt;AppModule</title>
<path fill="none" stroke="#000000" d="M1213,-198.302C1213,-216.2699 1213,-241 1213,-241 1213,-241 2024.0841,-241 2024.0841,-241"/>
<polygon fill="#000000" stroke="#000000" points="2024.0841,-244.5001 2034.0841,-241 2024.084,-237.5001 2024.0841,-244.5001"/>
</g>
<!-- AlertifyService -->
<g id="node22" class="node">
<title>AlertifyService</title>
<ellipse fill="#fdb462" stroke="#000000" cx="1065" cy="-180" rx="70.6181" ry="18"/>
<text text-anchor="middle" x="1065" y="-175.8" font-family="Times,serif" font-size="14.00" fill="#000000">AlertifyService</text>
</g>
<!-- AlertifyService&#45;&gt;AppModule -->
<g id="edge21" class="edge">
<title>AlertifyService&#45;&gt;AppModule</title>
<path fill="none" stroke="#000000" d="M1065,-198.1686C1065,-217.0898 1065,-244 1065,-244 1065,-244 2024.1648,-244 2024.1648,-244"/>
<polygon fill="#000000" stroke="#000000" points="2024.1648,-247.5001 2034.1648,-244 2024.1648,-240.5001 2024.1648,-247.5001"/>
</g>
<!-- AuthGuard -->
<g id="node23" class="node">
<title>AuthGuard</title>
<ellipse fill="#fdb462" stroke="#000000" cx="922" cy="-180" rx="54.4566" ry="18"/>
<text text-anchor="middle" x="922" y="-175.8" font-family="Times,serif" font-size="14.00" fill="#000000">AuthGuard</text>
</g>
<!-- AuthGuard&#45;&gt;AppModule -->
<g id="edge22" class="edge">
<title>AuthGuard&#45;&gt;AppModule</title>
<path fill="none" stroke="#000000" d="M922,-198.308C922,-218.1455 922,-247 922,-247 922,-247 2024.2468,-247 2024.2468,-247"/>
<polygon fill="#000000" stroke="#000000" points="2024.2468,-250.5001 2034.2468,-247 2024.2467,-243.5001 2024.2468,-250.5001"/>
</g>
<!-- PreventUnsavedChanges -->
<g id="node24" class="node">
<title>PreventUnsavedChanges</title>
<ellipse fill="#fdb462" stroke="#000000" cx="742" cy="-180" rx="107.6482" ry="18"/>
<text text-anchor="middle" x="742" y="-175.8" font-family="Times,serif" font-size="14.00" fill="#000000">PreventUnsavedChanges</text>
</g>
<!-- PreventUnsavedChanges&#45;&gt;AppModule -->
<g id="edge23" class="edge">
<title>PreventUnsavedChanges&#45;&gt;AppModule</title>
<path fill="none" stroke="#000000" d="M742,-198.0267C742,-218.7672 742,-250 742,-250 742,-250 2024.2437,-250 2024.2437,-250"/>
<polygon fill="#000000" stroke="#000000" points="2024.2438,-253.5001 2034.2437,-250 2024.2437,-246.5001 2024.2438,-253.5001"/>
</g>
<!-- UserService -->
<g id="node25" class="node">
<title>UserService</title>
<ellipse fill="#fdb462" stroke="#000000" cx="558" cy="-180" rx="58.4415" ry="18"/>
<text text-anchor="middle" x="558" y="-175.8" font-family="Times,serif" font-size="14.00" fill="#000000">UserService</text>
</g>
<!-- UserService&#45;&gt;AppModule -->
<g id="edge24" class="edge">
<title>UserService&#45;&gt;AppModule</title>
<path fill="none" stroke="#000000" d="M558,-198.1686C558,-219.498 558,-252 558,-252 558,-252 2024.2136,-252 2024.2136,-252"/>
<polygon fill="#000000" stroke="#000000" points="2024.2137,-255.5001 2034.2136,-252 2024.2136,-248.5001 2024.2137,-255.5001"/>
</g>
<!-- UserResolver -->
<g id="node26" class="node">
<title>UserResolver</title>
<ellipse fill="#fdb462" stroke="#000000" cx="418" cy="-180" rx="63.6793" ry="18"/>
<text text-anchor="middle" x="418" y="-175.8" font-family="Times,serif" font-size="14.00" fill="#000000">UserResolver</text>
</g>
<!-- UserResolver&#45;&gt;AppModule -->
<g id="edge25" class="edge">
<title>UserResolver&#45;&gt;AppModule</title>
<path fill="none" stroke="#000000" d="M418,-198.1554C418,-220.3519 418,-255 418,-255 418,-255 2024.1863,-255 2024.1863,-255"/>
<polygon fill="#000000" stroke="#000000" points="2024.1863,-258.5001 2034.1863,-255 2024.1862,-251.5001 2024.1863,-258.5001"/>
</g>
<!-- UsersResolver -->
<g id="node27" class="node">
<title>UsersResolver</title>
<ellipse fill="#fdb462" stroke="#000000" cx="269" cy="-180" rx="67.1907" ry="18"/>
<text text-anchor="middle" x="269" y="-175.8" font-family="Times,serif" font-size="14.00" fill="#000000">UsersResolver</text>
</g>
<!-- UsersResolver&#45;&gt;AppModule -->
<g id="edge26" class="edge">
<title>UsersResolver&#45;&gt;AppModule</title>
<path fill="none" stroke="#000000" d="M269,-198.0908C269,-221.1328 269,-258 269,-258 269,-258 2023.9931,-258 2023.9931,-258"/>
<polygon fill="#000000" stroke="#000000" points="2023.9931,-261.5001 2033.9931,-258 2023.9931,-254.5001 2023.9931,-261.5001"/>
</g>
<!-- UserEditResolver -->
<g id="node28" class="node">
<title>UserEditResolver</title>
<ellipse fill="#fdb462" stroke="#000000" cx="104" cy="-180" rx="79.8701" ry="18"/>
<text text-anchor="middle" x="104" y="-175.8" font-family="Times,serif" font-size="14.00" fill="#000000">UserEditResolver</text>
</g>
<!-- UserEditResolver&#45;&gt;AppModule -->
<g id="edge27" class="edge">
<title>UserEditResolver&#45;&gt;AppModule</title>
<path fill="none" stroke="#000000" d="M104,-198.3802C104,-222.2785 104,-261 104,-261 104,-261 2023.8997,-261 2023.8997,-261"/>
<polygon fill="#000000" stroke="#000000" points="2023.8997,-264.5001 2033.8997,-261 2023.8996,-257.5001 2023.8997,-264.5001"/>
</g>
<!-- { provide: AuthHttp, useFactory: authHttpServiceFactory, deps: [Http, RequestOptions] } -->
<g id="node29" class="node">
<title>{ provide: AuthHttp, useFactory: authHttpServiceFactory, deps: [Http, RequestOptions] }</title>
<ellipse fill="#fdb462" stroke="#000000" cx="1644" cy="-104" rx="358.4829" ry="18"/>
<text text-anchor="middle" x="1644" y="-99.8" font-family="Times,serif" font-size="14.00" fill="#000000">{ provide: AuthHttp, useFactory: authHttpServiceFactory, deps: [Http, RequestOptions] }</text>
</g>
<!-- { provide: AuthHttp, useFactory: authHttpServiceFactory, deps: [Http, RequestOptions] }&#45;&gt;AuthModule -->
<g id="edge28" class="edge">
<title>{ provide: AuthHttp, useFactory: authHttpServiceFactory, deps: [Http, RequestOptions] }&#45;&gt;AuthModule</title>
<path fill="none" stroke="#000000" d="M1644,-122.0109C1644,-122.0109 1644,-151.855 1644,-151.855"/>
<polygon fill="#000000" stroke="#000000" points="1640.5001,-151.8549 1644,-161.855 1647.5001,-151.855 1640.5001,-151.8549"/>
</g>
</g>
</svg>
