<?xml version="1.0" encoding="UTF-8" standalone="no"?>
<!DOCTYPE svg PUBLIC "-//W3C//DTD SVG 1.1//EN"
 "http://www.w3.org/Graphics/SVG/1.1/DTD/svg11.dtd">
<!-- Generated by graphviz version 2.40.1 (20161225.0304)
 -->
<!-- Title: dependencies Pages: 1 -->
<svg width="4463pt" height="366pt"
 viewBox="0.00 0.00 4463.00 366.00" xmlns="http://www.w3.org/2000/svg" xmlns:xlink="http://www.w3.org/1999/xlink">
<g id="graph0" class="graph" transform="scale(1 1) rotate(0) translate(4 362)">
<title>dependencies</title>
<polygon fill="#ffffff" stroke="transparent" points="-4,4 -4,-362 4459,-362 4459,4 -4,4"/>
<text text-anchor="start" x="2206.5091" y="-42.4" font-family="sans-serif" font-weight="bold" font-size="14.00" fill="#000000">Legend</text>
<polygon fill="#ffffb3" stroke="transparent" points="1993.5,-10 1993.5,-30 2013.5,-30 2013.5,-10 1993.5,-10"/>
<text text-anchor="start" x="2017.129" y="-15.4" font-family="sans-serif" font-size="14.00" fill="#000000"> &#160;Declarations</text>
<polygon fill="#8dd3c7" stroke="transparent" points="2106.5,-10 2106.5,-30 2126.5,-30 2126.5,-10 2106.5,-10"/>
<text text-anchor="start" x="2130.2251" y="-15.4" font-family="sans-serif" font-size="14.00" fill="#000000"> &#160;Module</text>
<polygon fill="#80b1d3" stroke="transparent" points="2192.5,-10 2192.5,-30 2212.5,-30 2212.5,-10 2192.5,-10"/>
<text text-anchor="start" x="2216.2812" y="-15.4" font-family="sans-serif" font-size="14.00" fill="#000000"> &#160;Bootstrap</text>
<polygon fill="#fdb462" stroke="transparent" points="2289.5,-10 2289.5,-30 2309.5,-30 2309.5,-10 2289.5,-10"/>
<text text-anchor="start" x="2313.1732" y="-15.4" font-family="sans-serif" font-size="14.00" fill="#000000"> &#160;Providers</text>
<polygon fill="#fb8072" stroke="transparent" points="2385.5,-10 2385.5,-30 2405.5,-30 2405.5,-10 2385.5,-10"/>
<text text-anchor="start" x="2409.2258" y="-15.4" font-family="sans-serif" font-size="14.00" fill="#000000"> &#160;Exports</text>
<g id="clust1" class="cluster">
<title>cluster_AppModule</title>
<polygon fill="none" stroke="#000000" stroke-dasharray="1,5" points="8,-146 8,-350 4103,-350 4103,-146 8,-146"/>
</g>
<g id="clust2" class="cluster">
<title>cluster_AppModule_declarations</title>
<polygon fill="none" stroke="#000000" points="1288,-154 1288,-206 2843,-206 2843,-154 1288,-154"/>
</g>
<g id="clust14" class="cluster">
<title>cluster_AppModule_imports</title>
<polygon fill="none" stroke="#000000" points="2851,-154 2851,-206 4095,-206 4095,-154 2851,-154"/>
</g>
<g id="clust16" class="cluster">
<title>cluster_AppModule_bootstrap</title>
<polygon fill="none" stroke="#000000" points="2104,-290 2104,-342 2228,-342 2228,-290 2104,-290"/>
</g>
<g id="clust17" class="cluster">
<title>cluster_AppModule_providers</title>
<polygon fill="none" stroke="#000000" points="16,-154 16,-206 1280,-206 1280,-154 16,-154"/>
</g>
<g id="clust18" class="cluster">
<title>cluster_AppRoutingModule</title>
<polygon fill="none" stroke="#000000" stroke-dasharray="1,5" points="4111,-214 4111,-282 4447,-282 4447,-214 4111,-214"/>
</g>
<g id="clust20" class="cluster">
<title>cluster_AppRoutingModule_imports</title>
<polygon fill="none" stroke="#000000" points="4245,-222 4245,-274 4439,-274 4439,-222 4245,-222"/>
</g>
<g id="clust21" class="cluster">
<title>cluster_AppRoutingModule_exports</title>
<polygon fill="none" stroke="#000000" points="4119,-222 4119,-274 4237,-274 4237,-222 4119,-222"/>
</g>
<g id="clust24" class="cluster">
<title>cluster_AuthModule</title>
<polygon fill="none" stroke="#000000" stroke-dasharray="1,5" points="2973,-70 2973,-138 3721,-138 3721,-70 2973,-70"/>
</g>
<g id="clust29" class="cluster">
<title>cluster_AuthModule_providers</title>
<polygon fill="none" stroke="#000000" points="2981,-78 2981,-130 3713,-130 3713,-78 2981,-78"/>
</g>
<!-- AppComponent -->
<g id="node1" class="node">
<title>AppComponent</title>
<polygon fill="#ffffb3" stroke="#000000" points="2834.9399,-198 2729.0601,-198 2729.0601,-162 2834.9399,-162 2834.9399,-198"/>
<text text-anchor="middle" x="2782" y="-175.8" font-family="Times,serif" font-size="14.00" fill="#000000">AppComponent</text>
</g>
<!-- AppModule -->
<g id="node12" class="node">
<title>AppModule</title>
<polygon fill="#8dd3c7" stroke="#000000" points="2207.6571,-266 2204.6571,-270 2183.6571,-270 2180.6571,-266 2124.3429,-266 2124.3429,-230 2207.6571,-230 2207.6571,-266"/>
<text text-anchor="middle" x="2166" y="-243.8" font-family="Times,serif" font-size="14.00" fill="#000000">AppModule</text>
</g>
<!-- AppComponent&#45;&gt;AppModule -->
<g id="edge1" class="edge">
<title>AppComponent&#45;&gt;AppModule</title>
<path fill="none" stroke="#000000" d="M2782,-198.302C2782,-216.2699 2782,-241 2782,-241 2782,-241 2217.8559,-241 2217.8559,-241"/>
<polygon fill="#000000" stroke="#000000" points="2217.8559,-237.5001 2207.8559,-241 2217.8559,-244.5001 2217.8559,-237.5001"/>
</g>
<!-- NavbarComponent -->
<g id="node2" class="node">
<title>NavbarComponent</title>
<polygon fill="#ffffb3" stroke="#000000" points="2711.0297,-198 2588.9703,-198 2588.9703,-162 2711.0297,-162 2711.0297,-198"/>
<text text-anchor="middle" x="2650" y="-175.8" font-family="Times,serif" font-size="14.00" fill="#000000">NavbarComponent</text>
</g>
<!-- NavbarComponent&#45;&gt;AppModule -->
<g id="edge2" class="edge">
<title>NavbarComponent&#45;&gt;AppModule</title>
<path fill="none" stroke="#000000" d="M2650,-198.0336C2650,-215.0597 2650,-238 2650,-238 2650,-238 2217.6845,-238 2217.6845,-238"/>
<polygon fill="#000000" stroke="#000000" points="2217.6845,-234.5001 2207.6845,-238 2217.6844,-241.5001 2217.6845,-234.5001"/>
</g>
<!-- SignupComponent -->
<g id="node3" class="node">
<title>SignupComponent</title>
<polygon fill="#ffffb3" stroke="#000000" points="2570.5056,-198 2449.4944,-198 2449.4944,-162 2570.5056,-162 2570.5056,-198"/>
<text text-anchor="middle" x="2510" y="-175.8" font-family="Times,serif" font-size="14.00" fill="#000000">SignupComponent</text>
</g>
<!-- SignupComponent&#45;&gt;AppModule -->
<g id="edge3" class="edge">
<title>SignupComponent&#45;&gt;AppModule</title>
<path fill="none" stroke="#000000" d="M2510,-198.027C2510,-214.3976 2510,-236 2510,-236 2510,-236 2217.8372,-236 2217.8372,-236"/>
<polygon fill="#000000" stroke="#000000" points="2217.8373,-232.5001 2207.8372,-236 2217.8372,-239.5001 2217.8373,-232.5001"/>
</g>
<!-- HomeComponent -->
<g id="node4" class="node">
<title>HomeComponent</title>
<polygon fill="#ffffb3" stroke="#000000" points="2431.5451,-198 2316.4549,-198 2316.4549,-162 2431.5451,-162 2431.5451,-198"/>
<text text-anchor="middle" x="2374" y="-175.8" font-family="Times,serif" font-size="14.00" fill="#000000">HomeComponent</text>
</g>
<!-- HomeComponent&#45;&gt;AppModule -->
<g id="edge4" class="edge">
<title>HomeComponent&#45;&gt;AppModule</title>
<path fill="none" stroke="#000000" d="M2374,-198.2396C2374,-213.5706 2374,-233 2374,-233 2374,-233 2218.0919,-233 2218.0919,-233"/>
<polygon fill="#000000" stroke="#000000" points="2218.0919,-229.5001 2208.0919,-233 2218.0919,-236.5001 2218.0919,-229.5001"/>
</g>
<!-- UserListComponent -->
<g id="node5" class="node">
<title>UserListComponent</title>
<polygon fill="#ffffb3" stroke="#000000" points="2297.538,-198 2168.462,-198 2168.462,-162 2297.538,-162 2297.538,-198"/>
<text text-anchor="middle" x="2233" y="-175.8" font-family="Times,serif" font-size="14.00" fill="#000000">UserListComponent</text>
</g>
<!-- UserListComponent&#45;&gt;AppModule -->
<g id="edge5" class="edge">
<title>UserListComponent&#45;&gt;AppModule</title>
<path fill="none" stroke="#000000" d="M2188.0298,-198.2228C2188.0298,-198.2228 2188.0298,-219.7269 2188.0298,-219.7269"/>
<polygon fill="#000000" stroke="#000000" points="2184.5299,-219.7269 2188.0298,-229.7269 2191.5299,-219.727 2184.5299,-219.7269"/>
</g>
<!-- ListComponent -->
<g id="node6" class="node">
<title>ListComponent</title>
<polygon fill="#ffffb3" stroke="#000000" points="2150.6109,-198 2047.3891,-198 2047.3891,-162 2150.6109,-162 2150.6109,-198"/>
<text text-anchor="middle" x="2099" y="-175.8" font-family="Times,serif" font-size="14.00" fill="#000000">ListComponent</text>
</g>
<!-- ListComponent&#45;&gt;AppModule -->
<g id="edge6" class="edge">
<title>ListComponent&#45;&gt;AppModule</title>
<path fill="none" stroke="#000000" d="M2137.3636,-198.2228C2137.3636,-198.2228 2137.3636,-219.7269 2137.3636,-219.7269"/>
<polygon fill="#000000" stroke="#000000" points="2133.8637,-219.7269 2137.3636,-229.7269 2140.8637,-219.727 2133.8637,-219.7269"/>
</g>
<!-- MessagesComponent -->
<g id="node7" class="node">
<title>MessagesComponent</title>
<polygon fill="#ffffb3" stroke="#000000" points="2029.7548,-198 1894.2452,-198 1894.2452,-162 2029.7548,-162 2029.7548,-198"/>
<text text-anchor="middle" x="1962" y="-175.8" font-family="Times,serif" font-size="14.00" fill="#000000">MessagesComponent</text>
</g>
<!-- MessagesComponent&#45;&gt;AppModule -->
<g id="edge7" class="edge">
<title>MessagesComponent&#45;&gt;AppModule</title>
<path fill="none" stroke="#000000" d="M1962,-198.2396C1962,-213.5706 1962,-233 1962,-233 1962,-233 2114.2253,-233 2114.2253,-233"/>
<polygon fill="#000000" stroke="#000000" points="2114.2253,-236.5001 2124.2253,-233 2114.2253,-229.5001 2114.2253,-236.5001"/>
</g>
<!-- UserViewComponent -->
<g id="node8" class="node">
<title>UserViewComponent</title>
<polygon fill="#ffffb3" stroke="#000000" points="1876.0772,-198 1737.9228,-198 1737.9228,-162 1876.0772,-162 1876.0772,-198"/>
<text text-anchor="middle" x="1807" y="-175.8" font-family="Times,serif" font-size="14.00" fill="#000000">UserViewComponent</text>
</g>
<!-- UserViewComponent&#45;&gt;AppModule -->
<g id="edge8" class="edge">
<title>UserViewComponent&#45;&gt;AppModule</title>
<path fill="none" stroke="#000000" d="M1807,-198.027C1807,-214.3976 1807,-236 1807,-236 1807,-236 2114.1155,-236 2114.1155,-236"/>
<polygon fill="#000000" stroke="#000000" points="2114.1156,-239.5001 2124.1155,-236 2114.1155,-232.5001 2114.1156,-239.5001"/>
</g>
<!-- UserDetailComponent -->
<g id="node9" class="node">
<title>UserDetailComponent</title>
<polygon fill="#ffffb3" stroke="#000000" points="1719.9664,-198 1578.0336,-198 1578.0336,-162 1719.9664,-162 1719.9664,-198"/>
<text text-anchor="middle" x="1649" y="-175.8" font-family="Times,serif" font-size="14.00" fill="#000000">UserDetailComponent</text>
</g>
<!-- UserDetailComponent&#45;&gt;AppModule -->
<g id="edge9" class="edge">
<title>UserDetailComponent&#45;&gt;AppModule</title>
<path fill="none" stroke="#000000" d="M1649,-198.0336C1649,-215.0597 1649,-238 1649,-238 1649,-238 2114.1297,-238 2114.1297,-238"/>
<polygon fill="#000000" stroke="#000000" points="2114.1297,-241.5001 2124.1297,-238 2114.1296,-234.5001 2114.1297,-241.5001"/>
</g>
<!-- UserEditComponent -->
<g id="node10" class="node">
<title>UserEditComponent</title>
<polygon fill="#ffffb3" stroke="#000000" points="1559.5926,-198 1428.4074,-198 1428.4074,-162 1559.5926,-162 1559.5926,-198"/>
<text text-anchor="middle" x="1494" y="-175.8" font-family="Times,serif" font-size="14.00" fill="#000000">UserEditComponent</text>
</g>
<!-- UserEditComponent&#45;&gt;AppModule -->
<g id="edge10" class="edge">
<title>UserEditComponent&#45;&gt;AppModule</title>
<path fill="none" stroke="#000000" d="M1494,-198.302C1494,-216.2699 1494,-241 1494,-241 1494,-241 2114.2173,-241 2114.2173,-241"/>
<polygon fill="#000000" stroke="#000000" points="2114.2173,-244.5001 2124.2173,-241 2114.2173,-237.5001 2114.2173,-244.5001"/>
</g>
<!-- PhotoComponent -->
<g id="node11" class="node">
<title>PhotoComponent</title>
<polygon fill="#ffffb3" stroke="#000000" points="1410.0056,-198 1295.9944,-198 1295.9944,-162 1410.0056,-162 1410.0056,-198"/>
<text text-anchor="middle" x="1353" y="-175.8" font-family="Times,serif" font-size="14.00" fill="#000000">PhotoComponent</text>
</g>
<!-- PhotoComponent&#45;&gt;AppModule -->
<g id="edge11" class="edge">
<title>PhotoComponent&#45;&gt;AppModule</title>
<path fill="none" stroke="#000000" d="M1353,-198.2222C1353,-216.8285 1353,-243 1353,-243 1353,-243 2114.284,-243 2114.284,-243"/>
<polygon fill="#000000" stroke="#000000" points="2114.284,-246.5001 2124.284,-243 2114.2839,-239.5001 2114.284,-246.5001"/>
</g>
<!-- AppComponent  -->
<g id="node22" class="node">
<title>AppComponent </title>
<polygon fill="#80b1d3" stroke="#000000" points="2220.439,-334 2111.561,-334 2111.561,-298 2220.439,-298 2220.439,-334"/>
<text text-anchor="middle" x="2166" y="-311.8" font-family="Times,serif" font-size="14.00" fill="#000000">AppComponent </text>
</g>
<!-- AppModule&#45;&gt;AppComponent  -->
<g id="edge21" class="edge">
<title>AppModule&#45;&gt;AppComponent </title>
<path fill="none" stroke="#000000" stroke-dasharray="1,5" d="M2166,-266.2228C2166,-266.2228 2166,-287.7269 2166,-287.7269"/>
<polygon fill="#000000" stroke="#000000" points="2162.5001,-287.7269 2166,-297.7269 2169.5001,-287.727 2162.5001,-287.7269"/>
</g>
<!-- BrowserModule -->
<g id="node13" class="node">
<title>BrowserModule</title>
<polygon fill="#8dd3c7" stroke="#000000" points="3940.4734,-198 3937.4734,-202 3916.4734,-202 3913.4734,-198 3833.5266,-198 3833.5266,-162 3940.4734,-162 3940.4734,-198"/>
<text text-anchor="middle" x="3887" y="-175.8" font-family="Times,serif" font-size="14.00" fill="#000000">BrowserModule</text>
</g>
<!-- BrowserModule&#45;&gt;AppModule -->
<g id="edge12" class="edge">
<title>BrowserModule&#45;&gt;AppModule</title>
<path fill="none" stroke="#000000" d="M3887,-198.3802C3887,-222.2785 3887,-261 3887,-261 3887,-261 2217.6891,-261 2217.6891,-261"/>
<polygon fill="#000000" stroke="#000000" points="2217.6891,-257.5001 2207.6891,-261 2217.689,-264.5001 2217.6891,-257.5001"/>
</g>
<!-- HttpModule -->
<g id="node14" class="node">
<title>HttpModule</title>
<polygon fill="#8dd3c7" stroke="#000000" points="3815.4387,-198 3812.4387,-202 3791.4387,-202 3788.4387,-198 3730.5613,-198 3730.5613,-162 3815.4387,-162 3815.4387,-198"/>
<text text-anchor="middle" x="3773" y="-175.8" font-family="Times,serif" font-size="14.00" fill="#000000">HttpModule</text>
</g>
<!-- HttpModule&#45;&gt;AppModule -->
<g id="edge13" class="edge">
<title>HttpModule&#45;&gt;AppModule</title>
<path fill="none" stroke="#000000" d="M3773,-198.3228C3773,-221.6602 3773,-259 3773,-259 3773,-259 2217.7471,-259 2217.7471,-259"/>
<polygon fill="#000000" stroke="#000000" points="2217.7471,-255.5001 2207.7471,-259 2217.7471,-262.5001 2217.7471,-255.5001"/>
</g>
<!-- FormsModule -->
<g id="node15" class="node">
<title>FormsModule</title>
<polygon fill="#8dd3c7" stroke="#000000" points="3712.8288,-198 3709.8288,-202 3688.8288,-202 3685.8288,-198 3617.1712,-198 3617.1712,-162 3712.8288,-162 3712.8288,-198"/>
<text text-anchor="middle" x="3665" y="-175.8" font-family="Times,serif" font-size="14.00" fill="#000000">FormsModule</text>
</g>
<!-- FormsModule&#45;&gt;AppModule -->
<g id="edge14" class="edge">
<title>FormsModule&#45;&gt;AppModule</title>
<path fill="none" stroke="#000000" d="M3665,-198.0109C3665,-220.4852 3665,-256 3665,-256 3665,-256 2218.0511,-256 2218.0511,-256"/>
<polygon fill="#000000" stroke="#000000" points="2218.0511,-252.5001 2208.0511,-256 2218.051,-259.5001 2218.0511,-252.5001"/>
</g>
<!-- BsDropdownModule.forRoot() -->
<g id="node16" class="node">
<title>BsDropdownModule.forRoot()</title>
<polygon fill="#8dd3c7" stroke="#000000" points="3599.0749,-198 3596.0749,-202 3575.0749,-202 3572.0749,-198 3408.9251,-198 3408.9251,-162 3599.0749,-162 3599.0749,-198"/>
<text text-anchor="middle" x="3504" y="-175.8" font-family="Times,serif" font-size="14.00" fill="#000000">BsDropdownModule.forRoot()</text>
</g>
<!-- BsDropdownModule.forRoot()&#45;&gt;AppModule -->
<g id="edge15" class="edge">
<title>BsDropdownModule.forRoot()&#45;&gt;AppModule</title>
<path fill="none" stroke="#000000" d="M3504,-198.2921C3504,-220.2057 3504,-254 3504,-254 3504,-254 2217.8815,-254 2217.8815,-254"/>
<polygon fill="#000000" stroke="#000000" points="2217.8815,-250.5001 2207.8815,-254 2217.8814,-257.5001 2217.8815,-250.5001"/>
</g>
<!-- AuthModule -->
<g id="node17" class="node">
<title>AuthModule</title>
<polygon fill="#8dd3c7" stroke="#000000" points="3390.5482,-198 3387.5482,-202 3366.5482,-202 3363.5482,-198 3303.4518,-198 3303.4518,-162 3390.5482,-162 3390.5482,-198"/>
<text text-anchor="middle" x="3347" y="-175.8" font-family="Times,serif" font-size="14.00" fill="#000000">AuthModule</text>
</g>
<!-- AuthModule&#45;&gt;AppModule -->
<g id="edge16" class="edge">
<title>AuthModule&#45;&gt;AppModule</title>
<path fill="none" stroke="#000000" d="M3347,-198.2843C3347,-219.3211 3347,-251 3347,-251 3347,-251 2217.6855,-251 2217.6855,-251"/>
<polygon fill="#000000" stroke="#000000" points="2217.6856,-247.5001 2207.6855,-251 2217.6855,-254.5001 2217.6856,-247.5001"/>
</g>
<!-- TabsModule.forRoot() -->
<g id="node18" class="node">
<title>TabsModule.forRoot()</title>
<polygon fill="#8dd3c7" stroke="#000000" points="3285.6313,-198 3282.6313,-202 3261.6313,-202 3258.6313,-198 3142.3687,-198 3142.3687,-162 3285.6313,-162 3285.6313,-198"/>
<text text-anchor="middle" x="3214" y="-175.8" font-family="Times,serif" font-size="14.00" fill="#000000">TabsModule.forRoot()</text>
</g>
<!-- TabsModule.forRoot()&#45;&gt;AppModule -->
<g id="edge17" class="edge">
<title>TabsModule.forRoot()&#45;&gt;AppModule</title>
<path fill="none" stroke="#000000" d="M3214,-198.2228C3214,-218.3652 3214,-248 3214,-248 3214,-248 2217.7296,-248 2217.7296,-248"/>
<polygon fill="#000000" stroke="#000000" points="2217.7296,-244.5001 2207.7296,-248 2217.7295,-251.5001 2217.7296,-244.5001"/>
</g>
<!-- NgxGalleryModule -->
<g id="node19" class="node">
<title>NgxGalleryModule</title>
<polygon fill="#8dd3c7" stroke="#000000" points="3124.6345,-198 3121.6345,-202 3100.6345,-202 3097.6345,-198 2999.3655,-198 2999.3655,-162 3124.6345,-162 3124.6345,-198"/>
<text text-anchor="middle" x="3062" y="-175.8" font-family="Times,serif" font-size="14.00" fill="#000000">NgxGalleryModule</text>
</g>
<!-- NgxGalleryModule&#45;&gt;AppModule -->
<g id="edge18" class="edge">
<title>NgxGalleryModule&#45;&gt;AppModule</title>
<path fill="none" stroke="#000000" d="M3062,-198.0348C3062,-217.5762 3062,-246 3062,-246 3062,-246 2217.7161,-246 2217.7161,-246"/>
<polygon fill="#000000" stroke="#000000" points="2217.7161,-242.5001 2207.7161,-246 2217.716,-249.5001 2217.7161,-242.5001"/>
</g>
<!-- FileUploadModule -->
<g id="node20" class="node">
<title>FileUploadModule</title>
<polygon fill="#8dd3c7" stroke="#000000" points="2981.0409,-198 2978.0409,-202 2957.0409,-202 2954.0409,-198 2858.9591,-198 2858.9591,-162 2981.0409,-162 2981.0409,-198"/>
<text text-anchor="middle" x="2920" y="-175.8" font-family="Times,serif" font-size="14.00" fill="#000000">FileUploadModule</text>
</g>
<!-- FileUploadModule&#45;&gt;AppModule -->
<g id="edge19" class="edge">
<title>FileUploadModule&#45;&gt;AppModule</title>
<path fill="none" stroke="#000000" d="M2920,-198.2222C2920,-216.8285 2920,-243 2920,-243 2920,-243 2217.8828,-243 2217.8828,-243"/>
<polygon fill="#000000" stroke="#000000" points="2217.8828,-239.5001 2207.8828,-243 2217.8827,-246.5001 2217.8828,-239.5001"/>
</g>
<!-- AppRoutingModule -->
<g id="node21" class="node">
<title>AppRoutingModule</title>
<polygon fill="#8dd3c7" stroke="#000000" points="4087.2744,-198 4084.2744,-202 4063.2744,-202 4060.2744,-198 3958.7256,-198 3958.7256,-162 4087.2744,-162 4087.2744,-198"/>
<text text-anchor="middle" x="4023" y="-175.8" font-family="Times,serif" font-size="14.00" fill="#000000">AppRoutingModule</text>
</g>
<!-- AppRoutingModule&#45;&gt;AppModule -->
<g id="edge20" class="edge">
<title>AppRoutingModule&#45;&gt;AppModule</title>
<path fill="none" stroke="#000000" d="M4023,-198.2267C4023,-222.9318 4023,-264 4023,-264 4023,-264 2217.8313,-264 2217.8313,-264"/>
<polygon fill="#000000" stroke="#000000" points="2217.8314,-260.5001 2207.8313,-264 2217.8313,-267.5001 2217.8314,-260.5001"/>
</g>
<!-- RouterModule  -->
<g id="node32" class="node">
<title>RouterModule </title>
<polygon fill="#fb8072" stroke="#000000" points="4228.6523,-266 4127.3477,-266 4127.3477,-230 4228.6523,-230 4228.6523,-266"/>
<text text-anchor="middle" x="4178" y="-243.8" font-family="Times,serif" font-size="14.00" fill="#000000">RouterModule </text>
</g>
<!-- AppRoutingModule&#45;&gt;RouterModule  -->
<g id="edge31" class="edge">
<title>AppRoutingModule&#45;&gt;RouterModule </title>
<path fill="none" stroke="#000000" stroke-dasharray="5,2" d="M4087.3874,-186C4129.9734,-186 4178,-186 4178,-186 4178,-186 4178,-219.7333 4178,-219.7333"/>
<polygon fill="#000000" stroke="#000000" points="4174.5001,-219.7333 4178,-229.7333 4181.5001,-219.7333 4174.5001,-219.7333"/>
</g>
<!-- AuthService -->
<g id="node23" class="node">
<title>AuthService</title>
<ellipse fill="#fdb462" stroke="#000000" cx="1213" cy="-180" rx="59.1083" ry="18"/>
<text text-anchor="middle" x="1213" y="-175.8" font-family="Times,serif" font-size="14.00" fill="#000000">AuthService</text>
</g>
<!-- AuthService&#45;&gt;AppModule -->
<g id="edge22" class="edge">
<title>AuthService&#45;&gt;AppModule</title>
<path fill="none" stroke="#000000" d="M1213,-198.0348C1213,-217.5762 1213,-246 1213,-246 1213,-246 2114.1301,-246 2114.1301,-246"/>
<polygon fill="#000000" stroke="#000000" points="2114.1301,-249.5001 2124.1301,-246 2114.13,-242.5001 2114.1301,-249.5001"/>
</g>
<!-- AlertifyService -->
<g id="node24" class="node">
<title>AlertifyService</title>
<ellipse fill="#fdb462" stroke="#000000" cx="1065" cy="-180" rx="70.6181" ry="18"/>
<text text-anchor="middle" x="1065" y="-175.8" font-family="Times,serif" font-size="14.00" fill="#000000">AlertifyService</text>
</g>
<!-- AlertifyService&#45;&gt;AppModule -->
<g id="edge23" class="edge">
<title>AlertifyService&#45;&gt;AppModule</title>
<path fill="none" stroke="#000000" d="M1065,-198.2228C1065,-218.3652 1065,-248 1065,-248 1065,-248 2114.1839,-248 2114.1839,-248"/>
<polygon fill="#000000" stroke="#000000" points="2114.184,-251.5001 2124.1839,-248 2114.1839,-244.5001 2114.184,-251.5001"/>
</g>
<!-- AuthGuard -->
<g id="node25" class="node">
<title>AuthGuard</title>
<ellipse fill="#fdb462" stroke="#000000" cx="922" cy="-180" rx="54.4566" ry="18"/>
<text text-anchor="middle" x="922" y="-175.8" font-family="Times,serif" font-size="14.00" fill="#000000">AuthGuard</text>
</g>
<!-- AuthGuard&#45;&gt;AppModule -->
<g id="edge24" class="edge">
<title>AuthGuard&#45;&gt;AppModule</title>
<path fill="none" stroke="#000000" d="M922,-198.2843C922,-219.3211 922,-251 922,-251 922,-251 2114.2542,-251 2114.2542,-251"/>
<polygon fill="#000000" stroke="#000000" points="2114.2542,-254.5001 2124.2542,-251 2114.2541,-247.5001 2114.2542,-254.5001"/>
</g>
<!-- PreventUnsavedChanges -->
<g id="node26" class="node">
<title>PreventUnsavedChanges</title>
<ellipse fill="#fdb462" stroke="#000000" cx="742" cy="-180" rx="107.6482" ry="18"/>
<text text-anchor="middle" x="742" y="-175.8" font-family="Times,serif" font-size="14.00" fill="#000000">PreventUnsavedChanges</text>
</g>
<!-- PreventUnsavedChanges&#45;&gt;AppModule -->
<g id="edge25" class="edge">
<title>PreventUnsavedChanges&#45;&gt;AppModule</title>
<path fill="none" stroke="#000000" d="M742,-198.2921C742,-220.2057 742,-254 742,-254 742,-254 2114.1536,-254 2114.1536,-254"/>
<polygon fill="#000000" stroke="#000000" points="2114.1536,-257.5001 2124.1536,-254 2114.1535,-250.5001 2114.1536,-257.5001"/>
</g>
<!-- UserService -->
<g id="node27" class="node">
<title>UserService</title>
<ellipse fill="#fdb462" stroke="#000000" cx="558" cy="-180" rx="58.4415" ry="18"/>
<text text-anchor="middle" x="558" y="-175.8" font-family="Times,serif" font-size="14.00" fill="#000000">UserService</text>
</g>
<!-- UserService&#45;&gt;AppModule -->
<g id="edge26" class="edge">
<title>UserService&#45;&gt;AppModule</title>
<path fill="none" stroke="#000000" d="M558,-198.0109C558,-220.4852 558,-256 558,-256 558,-256 2114.2269,-256 2114.2269,-256"/>
<polygon fill="#000000" stroke="#000000" points="2114.227,-259.5001 2124.2269,-256 2114.2269,-252.5001 2114.227,-259.5001"/>
</g>
<!-- UserResolver -->
<g id="node28" class="node">
<title>UserResolver</title>
<ellipse fill="#fdb462" stroke="#000000" cx="418" cy="-180" rx="63.6793" ry="18"/>
<text text-anchor="middle" x="418" y="-175.8" font-family="Times,serif" font-size="14.00" fill="#000000">UserResolver</text>
</g>
<!-- UserResolver&#45;&gt;AppModule -->
<g id="edge27" class="edge">
<title>UserResolver&#45;&gt;AppModule</title>
<path fill="none" stroke="#000000" d="M418,-198.3228C418,-221.6602 418,-259 418,-259 418,-259 2114.0869,-259 2114.0869,-259"/>
<polygon fill="#000000" stroke="#000000" points="2114.0869,-262.5001 2124.0869,-259 2114.0869,-255.5001 2114.0869,-262.5001"/>
</g>
<!-- UsersResolver -->
<g id="node29" class="node">
<title>UsersResolver</title>
<ellipse fill="#fdb462" stroke="#000000" cx="269" cy="-180" rx="67.1907" ry="18"/>
<text text-anchor="middle" x="269" y="-175.8" font-family="Times,serif" font-size="14.00" fill="#000000">UsersResolver</text>
</g>
<!-- UsersResolver&#45;&gt;AppModule -->
<g id="edge28" class="edge">
<title>UsersResolver&#45;&gt;AppModule</title>
<path fill="none" stroke="#000000" d="M269,-198.3802C269,-222.2785 269,-261 269,-261 269,-261 2114.1676,-261 2114.1676,-261"/>
<polygon fill="#000000" stroke="#000000" points="2114.1676,-264.5001 2124.1676,-261 2114.1676,-257.5001 2114.1676,-264.5001"/>
</g>
<!-- UserEditResolver -->
<g id="node30" class="node">
<title>UserEditResolver</title>
<ellipse fill="#fdb462" stroke="#000000" cx="104" cy="-180" rx="79.8701" ry="18"/>
<text text-anchor="middle" x="104" y="-175.8" font-family="Times,serif" font-size="14.00" fill="#000000">UserEditResolver</text>
</g>
<!-- UserEditResolver&#45;&gt;AppModule -->
<g id="edge29" class="edge">
<title>UserEditResolver&#45;&gt;AppModule</title>
<path fill="none" stroke="#000000" d="M104,-198.2267C104,-222.9318 104,-264 104,-264 104,-264 2113.8764,-264 2113.8764,-264"/>
<polygon fill="#000000" stroke="#000000" points="2113.8764,-267.5001 2123.8764,-264 2113.8763,-260.5001 2113.8764,-267.5001"/>
</g>
<!-- RouterModule.forRoot(args) -->
<g id="node31" class="node">
<title>RouterModule.forRoot(args)</title>
<polygon fill="#8dd3c7" stroke="#000000" points="4430.8419,-266 4427.8419,-270 4406.8419,-270 4403.8419,-266 4253.1581,-266 4253.1581,-230 4430.8419,-230 4430.8419,-266"/>
<text text-anchor="middle" x="4342" y="-243.8" font-family="Times,serif" font-size="14.00" fill="#000000">RouterModule.forRoot(args)</text>
</g>
<!-- RouterModule.forRoot(args)&#45;&gt;AppRoutingModule -->
<g id="edge30" class="edge">
<title>RouterModule.forRoot(args)&#45;&gt;AppRoutingModule</title>
<path fill="none" stroke="#000000" d="M4342,-229.7079C4342,-207.7943 4342,-174 4342,-174 4342,-174 4097.5544,-174 4097.5544,-174"/>
<polygon fill="#000000" stroke="#000000" points="4097.5544,-170.5001 4087.5544,-174 4097.5544,-177.5001 4097.5544,-170.5001"/>
</g>
<!-- { provide: AuthHttp, useFactory: authHttpServiceFactory, deps: [Http, RequestOptions] } -->
<g id="node33" class="node">
<title>{ provide: AuthHttp, useFactory: authHttpServiceFactory, deps: [Http, RequestOptions] }</title>
<ellipse fill="#fdb462" stroke="#000000" cx="3347" cy="-104" rx="358.4829" ry="18"/>
<text text-anchor="middle" x="3347" y="-99.8" font-family="Times,serif" font-size="14.00" fill="#000000">{ provide: AuthHttp, useFactory: authHttpServiceFactory, deps: [Http, RequestOptions] }</text>
</g>
<!-- { provide: AuthHttp, useFactory: authHttpServiceFactory, deps: [Http, RequestOptions] }&#45;&gt;AuthModule -->
<g id="edge32" class="edge">
<title>{ provide: AuthHttp, useFactory: authHttpServiceFactory, deps: [Http, RequestOptions] }&#45;&gt;AuthModule</title>
<path fill="none" stroke="#000000" d="M3347,-122.0109C3347,-122.0109 3347,-151.855 3347,-151.855"/>
<polygon fill="#000000" stroke="#000000" points="3343.5001,-151.8549 3347,-161.855 3350.5001,-151.855 3343.5001,-151.8549"/>
</g>
</g>
</svg>
