<?xml version="1.0" encoding="UTF-8" standalone="no"?>
<!DOCTYPE svg PUBLIC "-//W3C//DTD SVG 1.1//EN"
 "http://www.w3.org/Graphics/SVG/1.1/DTD/svg11.dtd">
<!-- Generated by graphviz version 2.40.1 (20161225.0304)
 -->
<!-- Title: dependencies Pages: 1 -->
<svg width="3895pt" height="284pt"
 viewBox="0.00 0.00 3895.00 284.00" xmlns="http://www.w3.org/2000/svg" xmlns:xlink="http://www.w3.org/1999/xlink">
<g id="graph0" class="graph" transform="scale(1 1) rotate(0) translate(4 280)">
<title>dependencies</title>
<polygon fill="#ffffff" stroke="transparent" points="-4,4 -4,-280 3891,-280 3891,4 -4,4"/>
<text text-anchor="start" x="1922.5091" y="-42.4" font-family="sans-serif" font-weight="bold" font-size="14.00" fill="#000000">Legend</text>
<polygon fill="#ffffb3" stroke="transparent" points="1709.5,-10 1709.5,-30 1729.5,-30 1729.5,-10 1709.5,-10"/>
<text text-anchor="start" x="1733.129" y="-15.4" font-family="sans-serif" font-size="14.00" fill="#000000"> &#160;Declarations</text>
<polygon fill="#8dd3c7" stroke="transparent" points="1822.5,-10 1822.5,-30 1842.5,-30 1842.5,-10 1822.5,-10"/>
<text text-anchor="start" x="1846.2251" y="-15.4" font-family="sans-serif" font-size="14.00" fill="#000000"> &#160;Module</text>
<polygon fill="#80b1d3" stroke="transparent" points="1908.5,-10 1908.5,-30 1928.5,-30 1928.5,-10 1908.5,-10"/>
<text text-anchor="start" x="1932.2812" y="-15.4" font-family="sans-serif" font-size="14.00" fill="#000000"> &#160;Bootstrap</text>
<polygon fill="#fdb462" stroke="transparent" points="2005.5,-10 2005.5,-30 2025.5,-30 2025.5,-10 2005.5,-10"/>
<text text-anchor="start" x="2029.1732" y="-15.4" font-family="sans-serif" font-size="14.00" fill="#000000"> &#160;Providers</text>
<polygon fill="#fb8072" stroke="transparent" points="2101.5,-10 2101.5,-30 2121.5,-30 2121.5,-10 2101.5,-10"/>
<text text-anchor="start" x="2125.2258" y="-15.4" font-family="sans-serif" font-size="14.00" fill="#000000"> &#160;Exports</text>
<g id="clust1" class="cluster">
<title>cluster_AppModule</title>
<polygon fill="none" stroke="#000000" stroke-dasharray="1,5" points="8,-70 8,-268 3879,-268 3879,-70 8,-70"/>
</g>
<g id="clust2" class="cluster">
<title>cluster_AppModule_declarations</title>
<polygon fill="none" stroke="#000000" points="2448,-78 2448,-130 3871,-130 3871,-78 2448,-78"/>
</g>
<g id="clust13" class="cluster">
<title>cluster_AppModule_imports</title>
<polygon fill="none" stroke="#000000" points="1288,-78 1288,-130 2440,-130 2440,-78 1288,-78"/>
</g>
<g id="clust15" class="cluster">
<title>cluster_AppModule_bootstrap</title>
<polygon fill="none" stroke="#000000" points="2014,-208 2014,-260 2138,-260 2138,-208 2014,-208"/>
</g>
<g id="clust16" class="cluster">
<title>cluster_AppModule_providers</title>
<polygon fill="none" stroke="#000000" points="16,-78 16,-130 1280,-130 1280,-78 16,-78"/>
</g>
<!-- AppComponent -->
<g id="node1" class="node">
<title>AppComponent</title>
<polygon fill="#ffffb3" stroke="#000000" points="3862.9399,-122 3757.0601,-122 3757.0601,-86 3862.9399,-86 3862.9399,-122"/>
<text text-anchor="middle" x="3810" y="-99.8" font-family="Times,serif" font-size="14.00" fill="#000000">AppComponent</text>
</g>
<!-- AppModule -->
<g id="node11" class="node">
<title>AppModule</title>
<polygon fill="#8dd3c7" stroke="#000000" points="2117.6571,-187 2114.6571,-191 2093.6571,-191 2090.6571,-187 2034.3429,-187 2034.3429,-151 2117.6571,-151 2117.6571,-187"/>
<text text-anchor="middle" x="2076" y="-164.8" font-family="Times,serif" font-size="14.00" fill="#000000">AppModule</text>
</g>
<!-- AppComponent&#45;&gt;AppModule -->
<g id="edge1" class="edge">
<title>AppComponent&#45;&gt;AppModule</title>
<path fill="none" stroke="#000000" d="M3810,-122.3802C3810,-146.2785 3810,-185 3810,-185 3810,-185 2128.004,-185 2128.004,-185"/>
<polygon fill="#000000" stroke="#000000" points="2128.004,-181.5001 2118.004,-185 2128.0039,-188.5001 2128.004,-181.5001"/>
</g>
<!-- NavbarComponent -->
<g id="node2" class="node">
<title>NavbarComponent</title>
<polygon fill="#ffffb3" stroke="#000000" points="3739.0297,-122 3616.9703,-122 3616.9703,-86 3739.0297,-86 3739.0297,-122"/>
<text text-anchor="middle" x="3678" y="-99.8" font-family="Times,serif" font-size="14.00" fill="#000000">NavbarComponent</text>
</g>
<!-- NavbarComponent&#45;&gt;AppModule -->
<g id="edge2" class="edge">
<title>NavbarComponent&#45;&gt;AppModule</title>
<path fill="none" stroke="#000000" d="M3678,-122.0908C3678,-145.1328 3678,-182 3678,-182 3678,-182 2128.0262,-182 2128.0262,-182"/>
<polygon fill="#000000" stroke="#000000" points="2128.0262,-178.5001 2118.0262,-182 2128.0261,-185.5001 2128.0262,-178.5001"/>
</g>
<!-- SignupComponent -->
<g id="node3" class="node">
<title>SignupComponent</title>
<polygon fill="#ffffb3" stroke="#000000" points="3598.5056,-122 3477.4944,-122 3477.4944,-86 3598.5056,-86 3598.5056,-122"/>
<text text-anchor="middle" x="3538" y="-99.8" font-family="Times,serif" font-size="14.00" fill="#000000">SignupComponent</text>
</g>
<!-- SignupComponent&#45;&gt;AppModule -->
<g id="edge3" class="edge">
<title>SignupComponent&#45;&gt;AppModule</title>
<path fill="none" stroke="#000000" d="M3538,-122.1554C3538,-144.3519 3538,-179 3538,-179 3538,-179 2127.7881,-179 2127.7881,-179"/>
<polygon fill="#000000" stroke="#000000" points="2127.7882,-175.5001 2117.7881,-179 2127.7881,-182.5001 2127.7882,-175.5001"/>
</g>
<!-- HomeComponent -->
<g id="node4" class="node">
<title>HomeComponent</title>
<polygon fill="#ffffb3" stroke="#000000" points="3459.5451,-122 3344.4549,-122 3344.4549,-86 3459.5451,-86 3459.5451,-122"/>
<text text-anchor="middle" x="3402" y="-99.8" font-family="Times,serif" font-size="14.00" fill="#000000">HomeComponent</text>
</g>
<!-- HomeComponent&#45;&gt;AppModule -->
<g id="edge4" class="edge">
<title>HomeComponent&#45;&gt;AppModule</title>
<path fill="none" stroke="#000000" d="M3402,-122.1686C3402,-143.498 3402,-176 3402,-176 3402,-176 2127.8746,-176 2127.8746,-176"/>
<polygon fill="#000000" stroke="#000000" points="2127.8746,-172.5001 2117.8746,-176 2127.8746,-179.5001 2127.8746,-172.5001"/>
</g>
<!-- UserListComponent -->
<g id="node5" class="node">
<title>UserListComponent</title>
<polygon fill="#ffffb3" stroke="#000000" points="3325.538,-122 3196.462,-122 3196.462,-86 3325.538,-86 3325.538,-122"/>
<text text-anchor="middle" x="3261" y="-99.8" font-family="Times,serif" font-size="14.00" fill="#000000">UserListComponent</text>
</g>
<!-- UserListComponent&#45;&gt;AppModule -->
<g id="edge5" class="edge">
<title>UserListComponent&#45;&gt;AppModule</title>
<path fill="none" stroke="#000000" d="M3261,-122.0267C3261,-142.7672 3261,-174 3261,-174 3261,-174 2127.8267,-174 2127.8267,-174"/>
<polygon fill="#000000" stroke="#000000" points="2127.8267,-170.5001 2117.8267,-174 2127.8267,-177.5001 2127.8267,-170.5001"/>
</g>
<!-- ListComponent -->
<g id="node6" class="node">
<title>ListComponent</title>
<polygon fill="#ffffb3" stroke="#000000" points="3178.6109,-122 3075.3891,-122 3075.3891,-86 3178.6109,-86 3178.6109,-122"/>
<text text-anchor="middle" x="3127" y="-99.8" font-family="Times,serif" font-size="14.00" fill="#000000">ListComponent</text>
</g>
<!-- ListComponent&#45;&gt;AppModule -->
<g id="edge6" class="edge">
<title>ListComponent&#45;&gt;AppModule</title>
<path fill="none" stroke="#000000" d="M3127,-122.308C3127,-142.1455 3127,-171 3127,-171 3127,-171 2127.849,-171 2127.849,-171"/>
<polygon fill="#000000" stroke="#000000" points="2127.849,-167.5001 2117.849,-171 2127.849,-174.5001 2127.849,-167.5001"/>
</g>
<!-- MessagesComponent -->
<g id="node7" class="node">
<title>MessagesComponent</title>
<polygon fill="#ffffb3" stroke="#000000" points="3057.7548,-122 2922.2452,-122 2922.2452,-86 3057.7548,-86 3057.7548,-122"/>
<text text-anchor="middle" x="2990" y="-99.8" font-family="Times,serif" font-size="14.00" fill="#000000">MessagesComponent</text>
</g>
<!-- MessagesComponent&#45;&gt;AppModule -->
<g id="edge7" class="edge">
<title>MessagesComponent&#45;&gt;AppModule</title>
<path fill="none" stroke="#000000" d="M2990,-122.1686C2990,-141.0898 2990,-168 2990,-168 2990,-168 2127.9489,-168 2127.9489,-168"/>
<polygon fill="#000000" stroke="#000000" points="2127.9489,-164.5001 2117.9489,-168 2127.9489,-171.5001 2127.9489,-164.5001"/>
</g>
<!-- UserViewComponent -->
<g id="node8" class="node">
<title>UserViewComponent</title>
<polygon fill="#ffffb3" stroke="#000000" points="2904.0772,-122 2765.9228,-122 2765.9228,-86 2904.0772,-86 2904.0772,-122"/>
<text text-anchor="middle" x="2835" y="-99.8" font-family="Times,serif" font-size="14.00" fill="#000000">UserViewComponent</text>
</g>
<!-- UserViewComponent&#45;&gt;AppModule -->
<g id="edge8" class="edge">
<title>UserViewComponent&#45;&gt;AppModule</title>
<path fill="none" stroke="#000000" d="M2835,-122.302C2835,-140.2699 2835,-165 2835,-165 2835,-165 2127.8883,-165 2127.8883,-165"/>
<polygon fill="#000000" stroke="#000000" points="2127.8883,-161.5001 2117.8883,-165 2127.8882,-168.5001 2127.8883,-161.5001"/>
</g>
<!-- UserDetailComponent -->
<g id="node9" class="node">
<title>UserDetailComponent</title>
<polygon fill="#ffffb3" stroke="#000000" points="2747.9664,-122 2606.0336,-122 2606.0336,-86 2747.9664,-86 2747.9664,-122"/>
<text text-anchor="middle" x="2677" y="-99.8" font-family="Times,serif" font-size="14.00" fill="#000000">UserDetailComponent</text>
</g>
<!-- UserDetailComponent&#45;&gt;AppModule -->
<g id="edge9" class="edge">
<title>UserDetailComponent&#45;&gt;AppModule</title>
<path fill="none" stroke="#000000" d="M2677,-122.0225C2677,-139.3734 2677,-163 2677,-163 2677,-163 2127.784,-163 2127.784,-163"/>
<polygon fill="#000000" stroke="#000000" points="2127.784,-159.5001 2117.784,-163 2127.784,-166.5001 2127.784,-159.5001"/>
</g>
<!-- UserEditComponent -->
<g id="node10" class="node">
<title>UserEditComponent</title>
<polygon fill="#ffffb3" stroke="#000000" points="2587.5926,-122 2456.4074,-122 2456.4074,-86 2587.5926,-86 2587.5926,-122"/>
<text text-anchor="middle" x="2522" y="-99.8" font-family="Times,serif" font-size="14.00" fill="#000000">UserEditComponent</text>
</g>
<!-- UserEditComponent&#45;&gt;AppModule -->
<g id="edge10" class="edge">
<title>UserEditComponent&#45;&gt;AppModule</title>
<path fill="none" stroke="#000000" d="M2522,-122.027C2522,-138.3976 2522,-160 2522,-160 2522,-160 2127.9586,-160 2127.9586,-160"/>
<polygon fill="#000000" stroke="#000000" points="2127.9586,-156.5001 2117.9586,-160 2127.9586,-163.5001 2127.9586,-156.5001"/>
</g>
<!-- AppComponent  -->
<g id="node20" class="node">
<title>AppComponent </title>
<polygon fill="#80b1d3" stroke="#000000" points="2130.439,-252 2021.561,-252 2021.561,-216 2130.439,-216 2130.439,-252"/>
<text text-anchor="middle" x="2076" y="-229.8" font-family="Times,serif" font-size="14.00" fill="#000000">AppComponent </text>
</g>
<!-- AppModule&#45;&gt;AppComponent  -->
<g id="edge19" class="edge">
<title>AppModule&#45;&gt;AppComponent </title>
<path fill="none" stroke="#000000" stroke-dasharray="1,5" d="M2076,-187.1061C2076,-187.1061 2076,-205.991 2076,-205.991"/>
<polygon fill="#000000" stroke="#000000" points="2072.5001,-205.9909 2076,-215.991 2079.5001,-205.991 2072.5001,-205.9909"/>
</g>
<!-- BrowserModule -->
<g id="node12" class="node">
<title>BrowserModule</title>
<polygon fill="#8dd3c7" stroke="#000000" points="2432.4734,-122 2429.4734,-126 2408.4734,-126 2405.4734,-122 2325.5266,-122 2325.5266,-86 2432.4734,-86 2432.4734,-122"/>
<text text-anchor="middle" x="2379" y="-99.8" font-family="Times,serif" font-size="14.00" fill="#000000">BrowserModule</text>
</g>
<!-- BrowserModule&#45;&gt;AppModule -->
<g id="edge11" class="edge">
<title>BrowserModule&#45;&gt;AppModule</title>
<path fill="none" stroke="#000000" d="M2379,-122.2396C2379,-137.5706 2379,-157 2379,-157 2379,-157 2127.8127,-157 2127.8127,-157"/>
<polygon fill="#000000" stroke="#000000" points="2127.8128,-153.5001 2117.8127,-157 2127.8127,-160.5001 2127.8128,-153.5001"/>
</g>
<!-- HttpModule -->
<g id="node13" class="node">
<title>HttpModule</title>
<polygon fill="#8dd3c7" stroke="#000000" points="2307.4387,-122 2304.4387,-126 2283.4387,-126 2280.4387,-122 2222.5613,-122 2222.5613,-86 2307.4387,-86 2307.4387,-122"/>
<text text-anchor="middle" x="2265" y="-99.8" font-family="Times,serif" font-size="14.00" fill="#000000">HttpModule</text>
</g>
<!-- HttpModule&#45;&gt;AppModule -->
<g id="edge12" class="edge">
<title>HttpModule&#45;&gt;AppModule</title>
<path fill="none" stroke="#000000" d="M2265,-122.0511C2265,-136.373 2265,-154 2265,-154 2265,-154 2127.9452,-154 2127.9452,-154"/>
<polygon fill="#000000" stroke="#000000" points="2127.9453,-150.5001 2117.9452,-154 2127.9452,-157.5001 2127.9453,-150.5001"/>
</g>
<!-- FormsModule -->
<g id="node14" class="node">
<title>FormsModule</title>
<polygon fill="#8dd3c7" stroke="#000000" points="2204.8288,-122 2201.8288,-126 2180.8288,-126 2177.8288,-122 2109.1712,-122 2109.1712,-86 2204.8288,-86 2204.8288,-122"/>
<text text-anchor="middle" x="2157" y="-99.8" font-family="Times,serif" font-size="14.00" fill="#000000">FormsModule</text>
</g>
<!-- FormsModule&#45;&gt;AppModule -->
<g id="edge13" class="edge">
<title>FormsModule&#45;&gt;AppModule</title>
<path fill="none" stroke="#000000" d="M2113.5821,-122.1061C2113.5821,-122.1061 2113.5821,-140.991 2113.5821,-140.991"/>
<polygon fill="#000000" stroke="#000000" points="2110.0821,-140.9909 2113.5821,-150.991 2117.0821,-140.991 2110.0821,-140.9909"/>
</g>
<!-- BsDropdownModule.forRoot() -->
<g id="node15" class="node">
<title>BsDropdownModule.forRoot()</title>
<polygon fill="#8dd3c7" stroke="#000000" points="2091.0749,-122 2088.0749,-126 2067.0749,-126 2064.0749,-122 1900.9251,-122 1900.9251,-86 2091.0749,-86 2091.0749,-122"/>
<text text-anchor="middle" x="1996" y="-99.8" font-family="Times,serif" font-size="14.00" fill="#000000">BsDropdownModule.forRoot()</text>
</g>
<!-- BsDropdownModule.forRoot()&#45;&gt;AppModule -->
<g id="edge14" class="edge">
<title>BsDropdownModule.forRoot()&#45;&gt;AppModule</title>
<path fill="none" stroke="#000000" d="M2062.7295,-122.1061C2062.7295,-122.1061 2062.7295,-140.991 2062.7295,-140.991"/>
<polygon fill="#000000" stroke="#000000" points="2059.2296,-140.9909 2062.7295,-150.991 2066.2296,-140.991 2059.2296,-140.9909"/>
</g>
<!-- RouterModule.forRoot(args) -->
<g id="node16" class="node">
<title>RouterModule.forRoot(args)</title>
<polygon fill="#8dd3c7" stroke="#000000" points="1882.8419,-122 1879.8419,-126 1858.8419,-126 1855.8419,-122 1705.1581,-122 1705.1581,-86 1882.8419,-86 1882.8419,-122"/>
<text text-anchor="middle" x="1794" y="-99.8" font-family="Times,serif" font-size="14.00" fill="#000000">RouterModule.forRoot(args)</text>
</g>
<!-- RouterModule.forRoot(args)&#45;&gt;AppModule -->
<g id="edge15" class="edge">
<title>RouterModule.forRoot(args)&#45;&gt;AppModule</title>
<path fill="none" stroke="#000000" d="M1794,-122.0511C1794,-136.373 1794,-154 1794,-154 1794,-154 2024.0863,-154 2024.0863,-154"/>
<polygon fill="#000000" stroke="#000000" points="2024.0863,-157.5001 2034.0863,-154 2024.0862,-150.5001 2024.0863,-157.5001"/>
</g>
<!-- AuthModule -->
<g id="node17" class="node">
<title>AuthModule</title>
<polygon fill="#8dd3c7" stroke="#000000" points="1687.5482,-122 1684.5482,-126 1663.5482,-126 1660.5482,-122 1600.4518,-122 1600.4518,-86 1687.5482,-86 1687.5482,-122"/>
<text text-anchor="middle" x="1644" y="-99.8" font-family="Times,serif" font-size="14.00" fill="#000000">AuthModule</text>
</g>
<!-- AuthModule&#45;&gt;AppModule -->
<g id="edge16" class="edge">
<title>AuthModule&#45;&gt;AppModule</title>
<path fill="none" stroke="#000000" d="M1644,-122.2396C1644,-137.5706 1644,-157 1644,-157 1644,-157 2024.1855,-157 2024.1855,-157"/>
<polygon fill="#000000" stroke="#000000" points="2024.1855,-160.5001 2034.1855,-157 2024.1855,-153.5001 2024.1855,-160.5001"/>
</g>
<!-- TabsModule.forRoot() -->
<g id="node18" class="node">
<title>TabsModule.forRoot()</title>
<polygon fill="#8dd3c7" stroke="#000000" points="1582.6313,-122 1579.6313,-126 1558.6313,-126 1555.6313,-122 1439.3687,-122 1439.3687,-86 1582.6313,-86 1582.6313,-122"/>
<text text-anchor="middle" x="1511" y="-99.8" font-family="Times,serif" font-size="14.00" fill="#000000">TabsModule.forRoot()</text>
</g>
<!-- TabsModule.forRoot()&#45;&gt;AppModule -->
<g id="edge17" class="edge">
<title>TabsModule.forRoot()&#45;&gt;AppModule</title>
<path fill="none" stroke="#000000" d="M1511,-122.027C1511,-138.3976 1511,-160 1511,-160 1511,-160 2023.9948,-160 2023.9948,-160"/>
<polygon fill="#000000" stroke="#000000" points="2023.9948,-163.5001 2033.9948,-160 2023.9947,-156.5001 2023.9948,-163.5001"/>
</g>
<!-- NgxGalleryModule -->
<g id="node19" class="node">
<title>NgxGalleryModule</title>
<polygon fill="#8dd3c7" stroke="#000000" points="1421.6345,-122 1418.6345,-126 1397.6345,-126 1394.6345,-122 1296.3655,-122 1296.3655,-86 1421.6345,-86 1421.6345,-122"/>
<text text-anchor="middle" x="1359" y="-99.8" font-family="Times,serif" font-size="14.00" fill="#000000">NgxGalleryModule</text>
</g>
<!-- NgxGalleryModule&#45;&gt;AppModule -->
<g id="edge18" class="edge">
<title>NgxGalleryModule&#45;&gt;AppModule</title>
<path fill="none" stroke="#000000" d="M1359,-122.0225C1359,-139.3734 1359,-163 1359,-163 1359,-163 2024.0889,-163 2024.0889,-163"/>
<polygon fill="#000000" stroke="#000000" points="2024.089,-166.5001 2034.0889,-163 2024.0889,-159.5001 2024.089,-166.5001"/>
</g>
<!-- AuthService -->
<g id="node21" class="node">
<title>AuthService</title>
<ellipse fill="#fdb462" stroke="#000000" cx="1213" cy="-104" rx="59.1083" ry="18"/>
<text text-anchor="middle" x="1213" y="-99.8" font-family="Times,serif" font-size="14.00" fill="#000000">AuthService</text>
</g>
<!-- AuthService&#45;&gt;AppModule -->
<g id="edge20" class="edge">
<title>AuthService&#45;&gt;AppModule</title>
<path fill="none" stroke="#000000" d="M1213,-122.302C1213,-140.2699 1213,-165 1213,-165 1213,-165 2024.0841,-165 2024.0841,-165"/>
<polygon fill="#000000" stroke="#000000" points="2024.0841,-168.5001 2034.0841,-165 2024.084,-161.5001 2024.0841,-168.5001"/>
</g>
<!-- AlertifyService -->
<g id="node22" class="node">
<title>AlertifyService</title>
<ellipse fill="#fdb462" stroke="#000000" cx="1065" cy="-104" rx="70.6181" ry="18"/>
<text text-anchor="middle" x="1065" y="-99.8" font-family="Times,serif" font-size="14.00" fill="#000000">AlertifyService</text>
</g>
<!-- AlertifyService&#45;&gt;AppModule -->
<g id="edge21" class="edge">
<title>AlertifyService&#45;&gt;AppModule</title>
<path fill="none" stroke="#000000" d="M1065,-122.1686C1065,-141.0898 1065,-168 1065,-168 1065,-168 2024.1648,-168 2024.1648,-168"/>
<polygon fill="#000000" stroke="#000000" points="2024.1648,-171.5001 2034.1648,-168 2024.1648,-164.5001 2024.1648,-171.5001"/>
</g>
<!-- AuthGuard -->
<g id="node23" class="node">
<title>AuthGuard</title>
<ellipse fill="#fdb462" stroke="#000000" cx="922" cy="-104" rx="54.4566" ry="18"/>
<text text-anchor="middle" x="922" y="-99.8" font-family="Times,serif" font-size="14.00" fill="#000000">AuthGuard</text>
</g>
<!-- AuthGuard&#45;&gt;AppModule -->
<g id="edge22" class="edge">
<title>AuthGuard&#45;&gt;AppModule</title>
<path fill="none" stroke="#000000" d="M922,-122.308C922,-142.1455 922,-171 922,-171 922,-171 2024.2468,-171 2024.2468,-171"/>
<polygon fill="#000000" stroke="#000000" points="2024.2468,-174.5001 2034.2468,-171 2024.2467,-167.5001 2024.2468,-174.5001"/>
</g>
<!-- PreventUnsavedChanges -->
<g id="node24" class="node">
<title>PreventUnsavedChanges</title>
<ellipse fill="#fdb462" stroke="#000000" cx="742" cy="-104" rx="107.6482" ry="18"/>
<text text-anchor="middle" x="742" y="-99.8" font-family="Times,serif" font-size="14.00" fill="#000000">PreventUnsavedChanges</text>
</g>
<!-- PreventUnsavedChanges&#45;&gt;AppModule -->
<g id="edge23" class="edge">
<title>PreventUnsavedChanges&#45;&gt;AppModule</title>
<path fill="none" stroke="#000000" d="M742,-122.0267C742,-142.7672 742,-174 742,-174 742,-174 2024.2437,-174 2024.2437,-174"/>
<polygon fill="#000000" stroke="#000000" points="2024.2438,-177.5001 2034.2437,-174 2024.2437,-170.5001 2024.2438,-177.5001"/>
</g>
<!-- UserService -->
<g id="node25" class="node">
<title>UserService</title>
<ellipse fill="#fdb462" stroke="#000000" cx="558" cy="-104" rx="58.4415" ry="18"/>
<text text-anchor="middle" x="558" y="-99.8" font-family="Times,serif" font-size="14.00" fill="#000000">UserService</text>
</g>
<!-- UserService&#45;&gt;AppModule -->
<g id="edge24" class="edge">
<title>UserService&#45;&gt;AppModule</title>
<path fill="none" stroke="#000000" d="M558,-122.1686C558,-143.498 558,-176 558,-176 558,-176 2024.2136,-176 2024.2136,-176"/>
<polygon fill="#000000" stroke="#000000" points="2024.2137,-179.5001 2034.2136,-176 2024.2136,-172.5001 2024.2137,-179.5001"/>
</g>
<!-- UserResolver -->
<g id="node26" class="node">
<title>UserResolver</title>
<ellipse fill="#fdb462" stroke="#000000" cx="418" cy="-104" rx="63.6793" ry="18"/>
<text text-anchor="middle" x="418" y="-99.8" font-family="Times,serif" font-size="14.00" fill="#000000">UserResolver</text>
</g>
<!-- UserResolver&#45;&gt;AppModule -->
<g id="edge25" class="edge">
<title>UserResolver&#45;&gt;AppModule</title>
<path fill="none" stroke="#000000" d="M418,-122.1554C418,-144.3519 418,-179 418,-179 418,-179 2024.1863,-179 2024.1863,-179"/>
<polygon fill="#000000" stroke="#000000" points="2024.1863,-182.5001 2034.1863,-179 2024.1862,-175.5001 2024.1863,-182.5001"/>
</g>
<!-- UsersResolver -->
<g id="node27" class="node">
<title>UsersResolver</title>
<ellipse fill="#fdb462" stroke="#000000" cx="269" cy="-104" rx="67.1907" ry="18"/>
<text text-anchor="middle" x="269" y="-99.8" font-family="Times,serif" font-size="14.00" fill="#000000">UsersResolver</text>
</g>
<!-- UsersResolver&#45;&gt;AppModule -->
<g id="edge26" class="edge">
<title>UsersResolver&#45;&gt;AppModule</title>
<path fill="none" stroke="#000000" d="M269,-122.0908C269,-145.1328 269,-182 269,-182 269,-182 2023.9931,-182 2023.9931,-182"/>
<polygon fill="#000000" stroke="#000000" points="2023.9931,-185.5001 2033.9931,-182 2023.9931,-178.5001 2023.9931,-185.5001"/>
</g>
<!-- UserEditResolver -->
<g id="node28" class="node">
<title>UserEditResolver</title>
<ellipse fill="#fdb462" stroke="#000000" cx="104" cy="-104" rx="79.8701" ry="18"/>
<text text-anchor="middle" x="104" y="-99.8" font-family="Times,serif" font-size="14.00" fill="#000000">UserEditResolver</text>
</g>
<!-- UserEditResolver&#45;&gt;AppModule -->
<g id="edge27" class="edge">
<title>UserEditResolver&#45;&gt;AppModule</title>
<path fill="none" stroke="#000000" d="M104,-122.3802C104,-146.2785 104,-185 104,-185 104,-185 2023.8997,-185 2023.8997,-185"/>
<polygon fill="#000000" stroke="#000000" points="2023.8997,-188.5001 2033.8997,-185 2023.8996,-181.5001 2023.8997,-188.5001"/>
</g>
</g>
</svg>
