<?xml version="1.0" encoding="UTF-8" standalone="no"?>
<!DOCTYPE svg PUBLIC "-//W3C//DTD SVG 1.1//EN"
 "http://www.w3.org/Graphics/SVG/1.1/DTD/svg11.dtd">
<!-- Generated by graphviz version 2.40.1 (20161225.0304)
 -->
<!-- Title: dependencies Pages: 1 -->
<svg width="4119pt" height="284pt"
 viewBox="0.00 0.00 4119.00 284.00" xmlns="http://www.w3.org/2000/svg" xmlns:xlink="http://www.w3.org/1999/xlink">
<g id="graph0" class="graph" transform="scale(1 1) rotate(0) translate(4 280)">
<title>dependencies</title>
<polygon fill="#ffffff" stroke="transparent" points="-4,4 -4,-280 4115,-280 4115,4 -4,4"/>
<text text-anchor="start" x="2034.5091" y="-42.4" font-family="sans-serif" font-weight="bold" font-size="14.00" fill="#000000">Legend</text>
<polygon fill="#ffffb3" stroke="transparent" points="1821.5,-10 1821.5,-30 1841.5,-30 1841.5,-10 1821.5,-10"/>
<text text-anchor="start" x="1845.129" y="-15.4" font-family="sans-serif" font-size="14.00" fill="#000000"> &#160;Declarations</text>
<polygon fill="#8dd3c7" stroke="transparent" points="1934.5,-10 1934.5,-30 1954.5,-30 1954.5,-10 1934.5,-10"/>
<text text-anchor="start" x="1958.2251" y="-15.4" font-family="sans-serif" font-size="14.00" fill="#000000"> &#160;Module</text>
<polygon fill="#80b1d3" stroke="transparent" points="2020.5,-10 2020.5,-30 2040.5,-30 2040.5,-10 2020.5,-10"/>
<text text-anchor="start" x="2044.2812" y="-15.4" font-family="sans-serif" font-size="14.00" fill="#000000"> &#160;Bootstrap</text>
<polygon fill="#fdb462" stroke="transparent" points="2117.5,-10 2117.5,-30 2137.5,-30 2137.5,-10 2117.5,-10"/>
<text text-anchor="start" x="2141.1732" y="-15.4" font-family="sans-serif" font-size="14.00" fill="#000000"> &#160;Providers</text>
<polygon fill="#fb8072" stroke="transparent" points="2213.5,-10 2213.5,-30 2233.5,-30 2233.5,-10 2213.5,-10"/>
<text text-anchor="start" x="2237.2258" y="-15.4" font-family="sans-serif" font-size="14.00" fill="#000000"> &#160;Exports</text>
<g id="clust1" class="cluster">
<title>cluster_AppModule</title>
<polygon fill="none" stroke="#000000" stroke-dasharray="1,5" points="8,-70 8,-268 4103,-268 4103,-70 8,-70"/>
</g>
<g id="clust2" class="cluster">
<title>cluster_AppModule_declarations</title>
<polygon fill="none" stroke="#000000" points="2540,-78 2540,-130 4095,-130 4095,-78 2540,-78"/>
</g>
<g id="clust14" class="cluster">
<title>cluster_AppModule_imports</title>
<polygon fill="none" stroke="#000000" points="1288,-78 1288,-130 2532,-130 2532,-78 1288,-78"/>
</g>
<g id="clust16" class="cluster">
<title>cluster_AppModule_bootstrap</title>
<polygon fill="none" stroke="#000000" points="2106,-208 2106,-260 2230,-260 2230,-208 2106,-208"/>
</g>
<g id="clust17" class="cluster">
<title>cluster_AppModule_providers</title>
<polygon fill="none" stroke="#000000" points="16,-78 16,-130 1280,-130 1280,-78 16,-78"/>
</g>
<!-- AppComponent -->
<g id="node1" class="node">
<title>AppComponent</title>
<polygon fill="#ffffb3" stroke="#000000" points="4086.9399,-122 3981.0601,-122 3981.0601,-86 4086.9399,-86 4086.9399,-122"/>
<text text-anchor="middle" x="4034" y="-99.8" font-family="Times,serif" font-size="14.00" fill="#000000">AppComponent</text>
</g>
<!-- AppModule -->
<g id="node12" class="node">
<title>AppModule</title>
<polygon fill="#8dd3c7" stroke="#000000" points="2209.6571,-187 2206.6571,-191 2185.6571,-191 2182.6571,-187 2126.3429,-187 2126.3429,-151 2209.6571,-151 2209.6571,-187"/>
<text text-anchor="middle" x="2168" y="-164.8" font-family="Times,serif" font-size="14.00" fill="#000000">AppModule</text>
</g>
<!-- AppComponent&#45;&gt;AppModule -->
<g id="edge1" class="edge">
<title>AppComponent&#45;&gt;AppModule</title>
<path fill="none" stroke="#000000" d="M4034,-122.3802C4034,-146.2785 4034,-185 4034,-185 4034,-185 2220.0341,-185 2220.0341,-185"/>
<polygon fill="#000000" stroke="#000000" points="2220.0341,-181.5001 2210.0341,-185 2220.034,-188.5001 2220.0341,-181.5001"/>
</g>
<!-- NavbarComponent -->
<g id="node2" class="node">
<title>NavbarComponent</title>
<polygon fill="#ffffb3" stroke="#000000" points="3963.0297,-122 3840.9703,-122 3840.9703,-86 3963.0297,-86 3963.0297,-122"/>
<text text-anchor="middle" x="3902" y="-99.8" font-family="Times,serif" font-size="14.00" fill="#000000">NavbarComponent</text>
</g>
<!-- NavbarComponent&#45;&gt;AppModule -->
<g id="edge2" class="edge">
<title>NavbarComponent&#45;&gt;AppModule</title>
<path fill="none" stroke="#000000" d="M3902,-122.0908C3902,-145.1328 3902,-182 3902,-182 3902,-182 2220.004,-182 2220.004,-182"/>
<polygon fill="#000000" stroke="#000000" points="2220.004,-178.5001 2210.004,-182 2220.0039,-185.5001 2220.004,-178.5001"/>
</g>
<!-- SignupComponent -->
<g id="node3" class="node">
<title>SignupComponent</title>
<polygon fill="#ffffb3" stroke="#000000" points="3822.5056,-122 3701.4944,-122 3701.4944,-86 3822.5056,-86 3822.5056,-122"/>
<text text-anchor="middle" x="3762" y="-99.8" font-family="Times,serif" font-size="14.00" fill="#000000">SignupComponent</text>
</g>
<!-- SignupComponent&#45;&gt;AppModule -->
<g id="edge3" class="edge">
<title>SignupComponent&#45;&gt;AppModule</title>
<path fill="none" stroke="#000000" d="M3762,-122.0109C3762,-144.4852 3762,-180 3762,-180 3762,-180 2219.8163,-180 2219.8163,-180"/>
<polygon fill="#000000" stroke="#000000" points="2219.8163,-176.5001 2209.8163,-180 2219.8163,-183.5001 2219.8163,-176.5001"/>
</g>
<!-- HomeComponent -->
<g id="node4" class="node">
<title>HomeComponent</title>
<polygon fill="#ffffb3" stroke="#000000" points="3683.5451,-122 3568.4549,-122 3568.4549,-86 3683.5451,-86 3683.5451,-122"/>
<text text-anchor="middle" x="3626" y="-99.8" font-family="Times,serif" font-size="14.00" fill="#000000">HomeComponent</text>
</g>
<!-- HomeComponent&#45;&gt;AppModule -->
<g id="edge4" class="edge">
<title>HomeComponent&#45;&gt;AppModule</title>
<path fill="none" stroke="#000000" d="M3626,-122.0449C3626,-143.6623 3626,-177 3626,-177 3626,-177 2219.6738,-177 2219.6738,-177"/>
<polygon fill="#000000" stroke="#000000" points="2219.6738,-173.5001 2209.6738,-177 2219.6738,-180.5001 2219.6738,-173.5001"/>
</g>
<!-- UserListComponent -->
<g id="node5" class="node">
<title>UserListComponent</title>
<polygon fill="#ffffb3" stroke="#000000" points="3549.538,-122 3420.462,-122 3420.462,-86 3549.538,-86 3549.538,-122"/>
<text text-anchor="middle" x="3485" y="-99.8" font-family="Times,serif" font-size="14.00" fill="#000000">UserListComponent</text>
</g>
<!-- UserListComponent&#45;&gt;AppModule -->
<g id="edge5" class="edge">
<title>UserListComponent&#45;&gt;AppModule</title>
<path fill="none" stroke="#000000" d="M3485,-122.2843C3485,-143.3211 3485,-175 3485,-175 3485,-175 2219.9581,-175 2219.9581,-175"/>
<polygon fill="#000000" stroke="#000000" points="2219.9581,-171.5001 2209.9581,-175 2219.9581,-178.5001 2219.9581,-171.5001"/>
</g>
<!-- ListComponent -->
<g id="node6" class="node">
<title>ListComponent</title>
<polygon fill="#ffffb3" stroke="#000000" points="3402.6109,-122 3299.3891,-122 3299.3891,-86 3402.6109,-86 3402.6109,-122"/>
<text text-anchor="middle" x="3351" y="-99.8" font-family="Times,serif" font-size="14.00" fill="#000000">ListComponent</text>
</g>
<!-- ListComponent&#45;&gt;AppModule -->
<g id="edge6" class="edge">
<title>ListComponent&#45;&gt;AppModule</title>
<path fill="none" stroke="#000000" d="M3351,-122.2228C3351,-142.3652 3351,-172 3351,-172 3351,-172 2219.7561,-172 2219.7561,-172"/>
<polygon fill="#000000" stroke="#000000" points="2219.7561,-168.5001 2209.7561,-172 2219.7561,-175.5001 2219.7561,-168.5001"/>
</g>
<!-- MessagesComponent -->
<g id="node7" class="node">
<title>MessagesComponent</title>
<polygon fill="#ffffb3" stroke="#000000" points="3281.7548,-122 3146.2452,-122 3146.2452,-86 3281.7548,-86 3281.7548,-122"/>
<text text-anchor="middle" x="3214" y="-99.8" font-family="Times,serif" font-size="14.00" fill="#000000">MessagesComponent</text>
</g>
<!-- MessagesComponent&#45;&gt;AppModule -->
<g id="edge7" class="edge">
<title>MessagesComponent&#45;&gt;AppModule</title>
<path fill="none" stroke="#000000" d="M3214,-122.1061C3214,-141.3391 3214,-169 3214,-169 3214,-169 2219.9744,-169 2219.9744,-169"/>
<polygon fill="#000000" stroke="#000000" points="2219.9744,-165.5001 2209.9744,-169 2219.9743,-172.5001 2219.9744,-165.5001"/>
</g>
<!-- UserViewComponent -->
<g id="node8" class="node">
<title>UserViewComponent</title>
<polygon fill="#ffffb3" stroke="#000000" points="3128.0772,-122 2989.9228,-122 2989.9228,-86 3128.0772,-86 3128.0772,-122"/>
<text text-anchor="middle" x="3059" y="-99.8" font-family="Times,serif" font-size="14.00" fill="#000000">UserViewComponent</text>
</g>
<!-- UserViewComponent&#45;&gt;AppModule -->
<g id="edge8" class="edge">
<title>UserViewComponent&#45;&gt;AppModule</title>
<path fill="none" stroke="#000000" d="M3059,-122.2222C3059,-140.8285 3059,-167 3059,-167 3059,-167 2219.7797,-167 2219.7797,-167"/>
<polygon fill="#000000" stroke="#000000" points="2219.7797,-163.5001 2209.7797,-167 2219.7797,-170.5001 2219.7797,-163.5001"/>
</g>
<!-- UserDetailComponent -->
<g id="node9" class="node">
<title>UserDetailComponent</title>
<polygon fill="#ffffb3" stroke="#000000" points="2971.9664,-122 2830.0336,-122 2830.0336,-86 2971.9664,-86 2971.9664,-122"/>
<text text-anchor="middle" x="2901" y="-99.8" font-family="Times,serif" font-size="14.00" fill="#000000">UserDetailComponent</text>
</g>
<!-- UserDetailComponent&#45;&gt;AppModule -->
<g id="edge9" class="edge">
<title>UserDetailComponent&#45;&gt;AppModule</title>
<path fill="none" stroke="#000000" d="M2901,-122.002C2901,-139.6754 2901,-164 2901,-164 2901,-164 2219.7753,-164 2219.7753,-164"/>
<polygon fill="#000000" stroke="#000000" points="2219.7754,-160.5001 2209.7753,-164 2219.7753,-167.5001 2219.7754,-160.5001"/>
</g>
<!-- UserEditComponent -->
<g id="node10" class="node">
<title>UserEditComponent</title>
<polygon fill="#ffffb3" stroke="#000000" points="2811.5926,-122 2680.4074,-122 2680.4074,-86 2811.5926,-86 2811.5926,-122"/>
<text text-anchor="middle" x="2746" y="-99.8" font-family="Times,serif" font-size="14.00" fill="#000000">UserEditComponent</text>
</g>
<!-- UserEditComponent&#45;&gt;AppModule -->
<g id="edge10" class="edge">
<title>UserEditComponent&#45;&gt;AppModule</title>
<path fill="none" stroke="#000000" d="M2746,-122.0336C2746,-139.0597 2746,-162 2746,-162 2746,-162 2220.0339,-162 2220.0339,-162"/>
<polygon fill="#000000" stroke="#000000" points="2220.034,-158.5001 2210.0339,-162 2220.0339,-165.5001 2220.034,-158.5001"/>
</g>
<!-- PhotoComponent -->
<g id="node11" class="node">
<title>PhotoComponent</title>
<polygon fill="#ffffb3" stroke="#000000" points="2662.0056,-122 2547.9944,-122 2547.9944,-86 2662.0056,-86 2662.0056,-122"/>
<text text-anchor="middle" x="2605" y="-99.8" font-family="Times,serif" font-size="14.00" fill="#000000">PhotoComponent</text>
</g>
<!-- PhotoComponent&#45;&gt;AppModule -->
<g id="edge11" class="edge">
<title>PhotoComponent&#45;&gt;AppModule</title>
<path fill="none" stroke="#000000" d="M2605,-122.0091C2605,-138.0494 2605,-159 2605,-159 2605,-159 2219.9014,-159 2219.9014,-159"/>
<polygon fill="#000000" stroke="#000000" points="2219.9014,-155.5001 2209.9014,-159 2219.9014,-162.5001 2219.9014,-155.5001"/>
</g>
<!-- AppComponent  -->
<g id="node22" class="node">
<title>AppComponent </title>
<polygon fill="#80b1d3" stroke="#000000" points="2222.439,-252 2113.561,-252 2113.561,-216 2222.439,-216 2222.439,-252"/>
<text text-anchor="middle" x="2168" y="-229.8" font-family="Times,serif" font-size="14.00" fill="#000000">AppComponent </text>
</g>
<!-- AppModule&#45;&gt;AppComponent  -->
<g id="edge21" class="edge">
<title>AppModule&#45;&gt;AppComponent </title>
<path fill="none" stroke="#000000" stroke-dasharray="1,5" d="M2168,-187.1061C2168,-187.1061 2168,-205.991 2168,-205.991"/>
<polygon fill="#000000" stroke="#000000" points="2164.5001,-205.9909 2168,-215.991 2171.5001,-205.991 2164.5001,-205.9909"/>
</g>
<!-- BrowserModule -->
<g id="node13" class="node">
<title>BrowserModule</title>
<polygon fill="#8dd3c7" stroke="#000000" points="2524.4734,-122 2521.4734,-126 2500.4734,-126 2497.4734,-122 2417.5266,-122 2417.5266,-86 2524.4734,-86 2524.4734,-122"/>
<text text-anchor="middle" x="2471" y="-99.8" font-family="Times,serif" font-size="14.00" fill="#000000">BrowserModule</text>
</g>
<!-- BrowserModule&#45;&gt;AppModule -->
<g id="edge12" class="edge">
<title>BrowserModule&#45;&gt;AppModule</title>
<path fill="none" stroke="#000000" d="M2471,-122.2396C2471,-137.5706 2471,-157 2471,-157 2471,-157 2219.8127,-157 2219.8127,-157"/>
<polygon fill="#000000" stroke="#000000" points="2219.8128,-153.5001 2209.8127,-157 2219.8127,-160.5001 2219.8128,-153.5001"/>
</g>
<!-- HttpModule -->
<g id="node14" class="node">
<title>HttpModule</title>
<polygon fill="#8dd3c7" stroke="#000000" points="2399.4387,-122 2396.4387,-126 2375.4387,-126 2372.4387,-122 2314.5613,-122 2314.5613,-86 2399.4387,-86 2399.4387,-122"/>
<text text-anchor="middle" x="2357" y="-99.8" font-family="Times,serif" font-size="14.00" fill="#000000">HttpModule</text>
</g>
<!-- HttpModule&#45;&gt;AppModule -->
<g id="edge13" class="edge">
<title>HttpModule&#45;&gt;AppModule</title>
<path fill="none" stroke="#000000" d="M2357,-122.0511C2357,-136.373 2357,-154 2357,-154 2357,-154 2219.9452,-154 2219.9452,-154"/>
<polygon fill="#000000" stroke="#000000" points="2219.9453,-150.5001 2209.9452,-154 2219.9452,-157.5001 2219.9453,-150.5001"/>
</g>
<!-- FormsModule -->
<g id="node15" class="node">
<title>FormsModule</title>
<polygon fill="#8dd3c7" stroke="#000000" points="2296.8288,-122 2293.8288,-126 2272.8288,-126 2269.8288,-122 2201.1712,-122 2201.1712,-86 2296.8288,-86 2296.8288,-122"/>
<text text-anchor="middle" x="2249" y="-99.8" font-family="Times,serif" font-size="14.00" fill="#000000">FormsModule</text>
</g>
<!-- FormsModule&#45;&gt;AppModule -->
<g id="edge14" class="edge">
<title>FormsModule&#45;&gt;AppModule</title>
<path fill="none" stroke="#000000" d="M2205.5821,-122.1061C2205.5821,-122.1061 2205.5821,-140.991 2205.5821,-140.991"/>
<polygon fill="#000000" stroke="#000000" points="2202.0821,-140.9909 2205.5821,-150.991 2209.0821,-140.991 2202.0821,-140.9909"/>
</g>
<!-- BsDropdownModule.forRoot() -->
<g id="node16" class="node">
<title>BsDropdownModule.forRoot()</title>
<polygon fill="#8dd3c7" stroke="#000000" points="2183.0749,-122 2180.0749,-126 2159.0749,-126 2156.0749,-122 1992.9251,-122 1992.9251,-86 2183.0749,-86 2183.0749,-122"/>
<text text-anchor="middle" x="2088" y="-99.8" font-family="Times,serif" font-size="14.00" fill="#000000">BsDropdownModule.forRoot()</text>
</g>
<!-- BsDropdownModule.forRoot()&#45;&gt;AppModule -->
<g id="edge15" class="edge">
<title>BsDropdownModule.forRoot()&#45;&gt;AppModule</title>
<path fill="none" stroke="#000000" d="M2154.7295,-122.1061C2154.7295,-122.1061 2154.7295,-140.991 2154.7295,-140.991"/>
<polygon fill="#000000" stroke="#000000" points="2151.2296,-140.9909 2154.7295,-150.991 2158.2296,-140.991 2151.2296,-140.9909"/>
</g>
<!-- AuthModule -->
<g id="node17" class="node">
<title>AuthModule</title>
<polygon fill="#8dd3c7" stroke="#000000" points="1974.5482,-122 1971.5482,-126 1950.5482,-126 1947.5482,-122 1887.4518,-122 1887.4518,-86 1974.5482,-86 1974.5482,-122"/>
<text text-anchor="middle" x="1931" y="-99.8" font-family="Times,serif" font-size="14.00" fill="#000000">AuthModule</text>
</g>
<!-- AuthModule&#45;&gt;AppModule -->
<g id="edge16" class="edge">
<title>AuthModule&#45;&gt;AppModule</title>
<path fill="none" stroke="#000000" d="M1931,-122.0511C1931,-136.373 1931,-154 1931,-154 1931,-154 2116.1747,-154 2116.1747,-154"/>
<polygon fill="#000000" stroke="#000000" points="2116.1747,-157.5001 2126.1747,-154 2116.1747,-150.5001 2116.1747,-157.5001"/>
</g>
<!-- TabsModule.forRoot() -->
<g id="node18" class="node">
<title>TabsModule.forRoot()</title>
<polygon fill="#8dd3c7" stroke="#000000" points="1869.6313,-122 1866.6313,-126 1845.6313,-126 1842.6313,-122 1726.3687,-122 1726.3687,-86 1869.6313,-86 1869.6313,-122"/>
<text text-anchor="middle" x="1798" y="-99.8" font-family="Times,serif" font-size="14.00" fill="#000000">TabsModule.forRoot()</text>
</g>
<!-- TabsModule.forRoot()&#45;&gt;AppModule -->
<g id="edge17" class="edge">
<title>TabsModule.forRoot()&#45;&gt;AppModule</title>
<path fill="none" stroke="#000000" d="M1798,-122.2396C1798,-137.5706 1798,-157 1798,-157 1798,-157 2116.2755,-157 2116.2755,-157"/>
<polygon fill="#000000" stroke="#000000" points="2116.2756,-160.5001 2126.2755,-157 2116.2755,-153.5001 2116.2756,-160.5001"/>
</g>
<!-- NgxGalleryModule -->
<g id="node19" class="node">
<title>NgxGalleryModule</title>
<polygon fill="#8dd3c7" stroke="#000000" points="1708.6345,-122 1705.6345,-126 1684.6345,-126 1681.6345,-122 1583.3655,-122 1583.3655,-86 1708.6345,-86 1708.6345,-122"/>
<text text-anchor="middle" x="1646" y="-99.8" font-family="Times,serif" font-size="14.00" fill="#000000">NgxGalleryModule</text>
</g>
<!-- NgxGalleryModule&#45;&gt;AppModule -->
<g id="edge18" class="edge">
<title>NgxGalleryModule&#45;&gt;AppModule</title>
<path fill="none" stroke="#000000" d="M1646,-122.0091C1646,-138.0494 1646,-159 1646,-159 1646,-159 2116.1649,-159 2116.1649,-159"/>
<polygon fill="#000000" stroke="#000000" points="2116.165,-162.5001 2126.1649,-159 2116.1649,-155.5001 2116.165,-162.5001"/>
</g>
<!-- FileUploadModule -->
<g id="node20" class="node">
<title>FileUploadModule</title>
<polygon fill="#8dd3c7" stroke="#000000" points="1565.0409,-122 1562.0409,-126 1541.0409,-126 1538.0409,-122 1442.9591,-122 1442.9591,-86 1565.0409,-86 1565.0409,-122"/>
<text text-anchor="middle" x="1504" y="-99.8" font-family="Times,serif" font-size="14.00" fill="#000000">FileUploadModule</text>
</g>
<!-- FileUploadModule&#45;&gt;AppModule -->
<g id="edge19" class="edge">
<title>FileUploadModule&#45;&gt;AppModule</title>
<path fill="none" stroke="#000000" d="M1504,-122.0336C1504,-139.0597 1504,-162 1504,-162 1504,-162 2116.2123,-162 2116.2123,-162"/>
<polygon fill="#000000" stroke="#000000" points="2116.2123,-165.5001 2126.2123,-162 2116.2123,-158.5001 2116.2123,-165.5001"/>
</g>
<!-- AppRoutingModule -->
<g id="node21" class="node">
<title>AppRoutingModule</title>
<polygon fill="#8dd3c7" stroke="#000000" points="1424.2744,-122 1421.2744,-126 1400.2744,-126 1397.2744,-122 1295.7256,-122 1295.7256,-86 1424.2744,-86 1424.2744,-122"/>
<text text-anchor="middle" x="1360" y="-99.8" font-family="Times,serif" font-size="14.00" fill="#000000">AppRoutingModule</text>
</g>
<!-- AppRoutingModule&#45;&gt;AppModule -->
<g id="edge20" class="edge">
<title>AppRoutingModule&#45;&gt;AppModule</title>
<path fill="none" stroke="#000000" d="M1360,-122.002C1360,-139.6754 1360,-164 1360,-164 1360,-164 2116.2599,-164 2116.2599,-164"/>
<polygon fill="#000000" stroke="#000000" points="2116.2599,-167.5001 2126.2599,-164 2116.2598,-160.5001 2116.2599,-167.5001"/>
</g>
<!-- AuthService -->
<g id="node23" class="node">
<title>AuthService</title>
<ellipse fill="#fdb462" stroke="#000000" cx="1213" cy="-104" rx="59.1083" ry="18"/>
<text text-anchor="middle" x="1213" y="-99.8" font-family="Times,serif" font-size="14.00" fill="#000000">AuthService</text>
</g>
<!-- AuthService&#45;&gt;AppModule -->
<g id="edge22" class="edge">
<title>AuthService&#45;&gt;AppModule</title>
<path fill="none" stroke="#000000" d="M1213,-122.2222C1213,-140.8285 1213,-167 1213,-167 1213,-167 2116.0422,-167 2116.0422,-167"/>
<polygon fill="#000000" stroke="#000000" points="2116.0422,-170.5001 2126.0422,-167 2116.0422,-163.5001 2116.0422,-170.5001"/>
</g>
<!-- AlertifyService -->
<g id="node24" class="node">
<title>AlertifyService</title>
<ellipse fill="#fdb462" stroke="#000000" cx="1065" cy="-104" rx="70.6181" ry="18"/>
<text text-anchor="middle" x="1065" y="-99.8" font-family="Times,serif" font-size="14.00" fill="#000000">AlertifyService</text>
</g>
<!-- AlertifyService&#45;&gt;AppModule -->
<g id="edge23" class="edge">
<title>AlertifyService&#45;&gt;AppModule</title>
<path fill="none" stroke="#000000" d="M1065,-122.1061C1065,-141.3391 1065,-169 1065,-169 1065,-169 2116.108,-169 2116.108,-169"/>
<polygon fill="#000000" stroke="#000000" points="2116.108,-172.5001 2126.108,-169 2116.1079,-165.5001 2116.108,-172.5001"/>
</g>
<!-- AuthGuard -->
<g id="node25" class="node">
<title>AuthGuard</title>
<ellipse fill="#fdb462" stroke="#000000" cx="922" cy="-104" rx="54.4566" ry="18"/>
<text text-anchor="middle" x="922" y="-99.8" font-family="Times,serif" font-size="14.00" fill="#000000">AuthGuard</text>
</g>
<!-- AuthGuard&#45;&gt;AppModule -->
<g id="edge24" class="edge">
<title>AuthGuard&#45;&gt;AppModule</title>
<path fill="none" stroke="#000000" d="M922,-122.2228C922,-142.3652 922,-172 922,-172 922,-172 2116.1871,-172 2116.1871,-172"/>
<polygon fill="#000000" stroke="#000000" points="2116.1871,-175.5001 2126.1871,-172 2116.187,-168.5001 2116.1871,-175.5001"/>
</g>
<!-- PreventUnsavedChanges -->
<g id="node26" class="node">
<title>PreventUnsavedChanges</title>
<ellipse fill="#fdb462" stroke="#000000" cx="742" cy="-104" rx="107.6482" ry="18"/>
<text text-anchor="middle" x="742" y="-99.8" font-family="Times,serif" font-size="14.00" fill="#000000">PreventUnsavedChanges</text>
</g>
<!-- PreventUnsavedChanges&#45;&gt;AppModule -->
<g id="edge25" class="edge">
<title>PreventUnsavedChanges&#45;&gt;AppModule</title>
<path fill="none" stroke="#000000" d="M742,-122.2843C742,-143.3211 742,-175 742,-175 742,-175 2116.0948,-175 2116.0948,-175"/>
<polygon fill="#000000" stroke="#000000" points="2116.0948,-178.5001 2126.0948,-175 2116.0948,-171.5001 2116.0948,-178.5001"/>
</g>
<!-- UserService -->
<g id="node27" class="node">
<title>UserService</title>
<ellipse fill="#fdb462" stroke="#000000" cx="558" cy="-104" rx="58.4415" ry="18"/>
<text text-anchor="middle" x="558" y="-99.8" font-family="Times,serif" font-size="14.00" fill="#000000">UserService</text>
</g>
<!-- UserService&#45;&gt;AppModule -->
<g id="edge26" class="edge">
<title>UserService&#45;&gt;AppModule</title>
<path fill="none" stroke="#000000" d="M558,-122.0449C558,-143.6623 558,-177 558,-177 558,-177 2116.175,-177 2116.175,-177"/>
<polygon fill="#000000" stroke="#000000" points="2116.175,-180.5001 2126.175,-177 2116.1749,-173.5001 2116.175,-180.5001"/>
</g>
<!-- UserResolver -->
<g id="node28" class="node">
<title>UserResolver</title>
<ellipse fill="#fdb462" stroke="#000000" cx="418" cy="-104" rx="63.6793" ry="18"/>
<text text-anchor="middle" x="418" y="-99.8" font-family="Times,serif" font-size="14.00" fill="#000000">UserResolver</text>
</g>
<!-- UserResolver&#45;&gt;AppModule -->
<g id="edge27" class="edge">
<title>UserResolver&#45;&gt;AppModule</title>
<path fill="none" stroke="#000000" d="M418,-122.0109C418,-144.4852 418,-180 418,-180 418,-180 2116.0389,-180 2116.0389,-180"/>
<polygon fill="#000000" stroke="#000000" points="2116.039,-183.5001 2126.0389,-180 2116.0389,-176.5001 2116.039,-183.5001"/>
</g>
<!-- UsersResolver -->
<g id="node29" class="node">
<title>UsersResolver</title>
<ellipse fill="#fdb462" stroke="#000000" cx="269" cy="-104" rx="67.1907" ry="18"/>
<text text-anchor="middle" x="269" y="-99.8" font-family="Times,serif" font-size="14.00" fill="#000000">UsersResolver</text>
</g>
<!-- UsersResolver&#45;&gt;AppModule -->
<g id="edge28" class="edge">
<title>UsersResolver&#45;&gt;AppModule</title>
<path fill="none" stroke="#000000" d="M269,-122.0908C269,-145.1328 269,-182 269,-182 269,-182 2116.1235,-182 2116.1235,-182"/>
<polygon fill="#000000" stroke="#000000" points="2116.1235,-185.5001 2126.1235,-182 2116.1235,-178.5001 2116.1235,-185.5001"/>
</g>
<!-- UserEditResolver -->
<g id="node30" class="node">
<title>UserEditResolver</title>
<ellipse fill="#fdb462" stroke="#000000" cx="104" cy="-104" rx="79.8701" ry="18"/>
<text text-anchor="middle" x="104" y="-99.8" font-family="Times,serif" font-size="14.00" fill="#000000">UserEditResolver</text>
</g>
<!-- UserEditResolver&#45;&gt;AppModule -->
<g id="edge29" class="edge">
<title>UserEditResolver&#45;&gt;AppModule</title>
<path fill="none" stroke="#000000" d="M104,-122.3802C104,-146.2785 104,-185 104,-185 104,-185 2116.3044,-185 2116.3044,-185"/>
<polygon fill="#000000" stroke="#000000" points="2116.3044,-188.5001 2126.3044,-185 2116.3044,-181.5001 2116.3044,-188.5001"/>
</g>
</g>
</svg>
